<?xml version="1.0" encoding="UTF-8"?>
<svg width="110px" height="40px" viewBox="0 0 110 40" version="1.1" xmlns="http://www.w3.org/2000/svg" xmlns:xlink="http://www.w3.org/1999/xlink">
    <!-- Generator: Sketch 47.1 (45422) - http://www.bohemiancoding.com/sketch -->
    <title>Group 12</title>
    <desc>Created with Sketch.</desc>
    <defs>
        <polygon id="path-1" points="0.000225808248 39.9641791 109.82556 39.9641791 109.82556 20.0251251 109.82556 0.0860710646 0.000225808248 0.0860710646"></polygon>
    </defs>
    <g id="Welcome" stroke="none" stroke-width="1" fill="none" fill-rule="evenodd">
        <g id="option-2c-copy-10" transform="translate(-405.000000, -11.000000)">
            <g id="Group-12" transform="translate(405.000000, 11.000000)">
                <mask id="mask-2" fill="white">
                    <use xlink:href="#path-1"></use>
                </mask>
                <g id="Clip-2"></g>
                <path d="M79.3171396,30.9104478 C78.95951,30.9104478 78.6113855,30.9850746 78.271578,31.1337313 C77.9323645,31.2829851 77.6032502,31.4901493 77.2854232,31.7546269 L77.2854232,31.079403 L76.2677828,31.079403 L76.2677828,37.161194 L77.2854232,37.161194 L77.2854232,32.6202985 C77.5640416,32.4059701 77.8545414,32.2298507 78.1581108,32.0919403 C78.461086,31.9540299 78.7521799,31.8853731 79.0302042,31.8853731 C79.3010998,31.8853731 79.5214994,31.9223881 79.6914032,31.9970149 C79.8607129,32.0710448 79.990814,32.1844776 80.0811125,32.3373134 C80.1678466,32.4752239 80.2278476,32.6668657 80.2605214,32.9116418 C80.2926011,33.1564179 80.308641,33.4185075 80.308641,33.6979104 L80.308641,37.161194 L81.3274696,37.161194 L81.3274696,33.2137313 C81.3274696,32.4698507 81.1557836,31.8997015 80.8124116,31.5044776 C80.4696337,31.1086567 79.9712097,30.9104478 79.3171396,30.9104478 Z M76.002828,24.798806 C75.7063875,24.9385075 75.3790554,25.0083582 75.0220198,25.0083582 C74.5919138,25.0083582 74.2728987,24.920597 74.0631923,24.7438806 C73.8534859,24.5677612 73.7489297,24.3056716 73.7489297,23.9570149 C73.7489297,23.6489552 73.8392282,23.4065672 74.0192311,23.2304478 C74.2004222,23.0549254 74.4368617,22.9247761 74.7291438,22.841194 C74.9750884,22.7725373 75.3083612,22.72 75.728368,22.6835821 C76.149563,22.6471642 76.5155096,22.6197015 76.8262078,22.601791 L76.8262078,24.2949254 C76.5731343,24.4913433 76.2986744,24.6591045 76.002828,24.798806 Z M76.8262078,25.1444776 L76.8262078,25.7922388 L77.8390956,25.7922388 L77.8390956,21.6656716 C77.8390956,21.2728358 77.7790947,20.9444776 77.6602808,20.68 C77.541467,20.4149254 77.3679988,20.198806 77.1398763,20.0316418 C76.9093775,19.8614925 76.6355116,19.7402985 76.3194668,19.6698507 C76.003422,19.599403 75.6327229,19.5635821 75.2055872,19.5635821 C74.8414228,19.5635821 74.4713178,19.5964179 74.0958661,19.6614925 C73.7192262,19.7271642 73.4328849,19.7868657 73.2338718,19.841194 L73.2338718,20.881194 L73.2885261,20.881194 C73.6384328,20.7474627 73.9782404,20.6447761 74.3067606,20.5737313 C74.6352808,20.5026866 74.9335035,20.4674627 75.2008346,20.4674627 C75.4212343,20.4674627 75.6327229,20.481791 75.8347064,20.5110448 C76.0366899,20.5402985 76.2101581,20.5964179 76.3545169,20.68 C76.5060045,20.7671642 76.6230361,20.8865672 76.7038295,21.039403 C76.785217,21.1916418 76.8262078,21.3844776 76.8262078,21.6161194 L76.8262078,21.7743284 C76.2339209,21.8035821 75.6790603,21.8465672 75.1628142,21.9044776 C74.6465681,21.9629851 74.2033926,22.0740299 73.8356638,22.2370149 C73.4709053,22.400597 73.1899106,22.6244776 72.9932738,22.9092537 C72.7960428,23.1946269 72.6980214,23.5677612 72.6980214,24.0286567 C72.6980214,24.5910448 72.8869354,25.0531343 73.2671396,25.4161194 C73.6455617,25.7797015 74.1077474,25.960597 74.653697,25.960597 C74.9495434,25.960597 75.2079635,25.9331343 75.4283631,25.8764179 C75.6487628,25.8202985 75.8436174,25.7504478 76.0135212,25.6668657 C76.15788,25.601194 76.3063973,25.5134328 76.4602612,25.4029851 C76.6141251,25.2925373 76.7359093,25.2059701 76.8262078,25.1444776 Z M103.027627,30.9104478 C102.669997,30.9104478 102.320684,30.9850746 101.982065,31.1337313 C101.642257,31.2829851 101.313737,31.4901493 100.99591,31.7546269 L100.99591,31.079403 L99.9776758,31.079403 L99.9776758,37.161194 L100.99591,37.161194 L100.99591,32.6202985 C101.273935,32.4059701 101.565028,32.2298507 101.868004,32.0919403 C102.171573,31.9540299 102.462073,31.8853731 102.740097,31.8853731 C103.010993,31.8853731 103.231392,31.9223881 103.401296,31.9970149 C103.570606,32.0710448 103.700707,32.1844776 103.7916,32.3373134 C103.87774,32.4752239 103.937741,32.6668657 103.96982,32.9116418 C104.002494,33.1564179 104.018534,33.4185075 104.018534,33.6979104 L104.018534,37.161194 L105.036768,37.161194 L105.036768,33.2137313 C105.036768,32.4698507 104.865677,31.8997015 104.522305,31.5044776 C104.179527,31.1086567 103.681103,30.9104478 103.027627,30.9104478 Z M100.328177,25.7922388 L100.328177,21.8447761 C100.328177,21.1008955 100.156491,20.5307463 99.8137127,20.1355224 C99.4709348,19.7397015 98.9719167,19.5420896 98.3184407,19.5420896 C97.9608111,19.5420896 97.6120925,19.6161194 97.272879,19.7647761 C96.9330715,19.9140299 96.6045513,20.121194 96.2873183,20.3862687 L96.2873183,19.7110448 L95.2684898,19.7110448 L95.2684898,25.7922388 L96.2873183,25.7922388 L96.2873183,21.2513433 C96.5653427,21.0376119 96.8558425,20.8614925 97.1588178,20.7235821 C97.4623871,20.5856716 97.753481,20.5164179 98.0315053,20.5164179 C98.3024008,20.5164179 98.5222064,20.5534328 98.6921102,20.6280597 C98.8620139,20.7026866 98.9921151,20.8161194 99.0824136,20.9683582 C99.1685536,21.1068657 99.2285546,21.2979104 99.2612284,21.5426866 C99.2933081,21.7880597 99.3099421,22.0501493 99.3099421,22.3295522 L99.3099421,25.7922388 L100.328177,25.7922388 Z M69.5304448,19.5420896 C69.1437058,19.5420896 68.7807296,19.6191045 68.440922,19.7737313 C68.1017086,19.9277612 67.7262569,20.1791045 67.314567,20.5271642 C67.1737726,20.2185075 66.9593136,19.9773134 66.6723782,19.8029851 C66.3848488,19.6292537 66.0355361,19.5420896 65.6238462,19.5420896 C65.2662166,19.5420896 64.9299735,19.6161194 64.6133346,19.7647761 C64.2978839,19.9140299 63.980651,20.121194 63.662824,20.3862687 L63.662824,19.7110448 L62.6445896,19.7110448 L62.6445896,25.7922388 L63.662824,25.7922388 L63.662824,21.2513433 C63.9408484,21.0376119 64.2200609,20.8614925 64.4998674,20.7235821 C64.779674,20.5856716 65.0588865,20.5164179 65.3375049,20.5164179 C65.6291929,20.5164179 65.853751,20.5558209 66.008803,20.6334328 C66.1644491,20.7116418 66.283263,20.8286567 66.3664326,20.9844776 C66.4418794,21.1301493 66.4917812,21.3229851 66.5149499,21.5641791 C66.5393068,21.8059701 66.5505941,22.0608955 66.5505941,22.3295522 L66.5505941,25.7922388 L67.5688286,25.7922388 L67.5688286,21.8997015 C67.5688286,21.7904478 67.5652641,21.680597 67.5581353,21.5695522 C67.5510065,21.4591045 67.5420954,21.3623881 67.5314022,21.278806 C67.8165554,21.0579104 68.1017086,20.8746269 68.3868617,20.7319403 C68.6720149,20.5880597 68.9577622,20.5164179 69.2429154,20.5164179 C69.5357914,20.5164179 69.7591614,20.5570149 69.9148075,20.6364179 C70.0704537,20.7158209 70.1892675,20.8346269 70.2724372,20.9898507 C70.348478,21.1349254 70.3983798,21.3295522 70.4215485,21.5725373 C70.4447172,21.8161194 70.4565986,22.0680597 70.4565986,22.3295522 L70.4565986,25.7922388 L71.4748331,25.7922388 L71.4748331,21.8447761 C71.4748331,21.118806 71.3174048,20.5534328 71.00136,20.1492537 C70.6853152,19.7444776 70.1946141,19.5420896 69.5304448,19.5420896 Z M107.723743,29.3319403 L106.704915,29.3319403 L106.704915,31.079403 L106.016983,31.079403 L106.016983,31.9402985 L106.704915,31.9402985 L106.704915,35.1737313 C106.704915,35.9104478 106.865313,36.4459701 107.187299,36.7797015 C107.508096,37.1140299 107.978005,37.280597 108.595243,37.280597 C108.772869,37.280597 108.974259,37.2644776 109.200005,37.2316418 C109.425157,37.198806 109.634269,37.1570149 109.82556,37.1062687 L109.82556,36.1862687 L109.771499,36.1862687 C109.691894,36.2191045 109.561793,36.2597015 109.381196,36.3086567 C109.200599,36.3576119 109.027131,36.3820896 108.860791,36.3820896 C108.575638,36.3820896 108.363556,36.3486567 108.224543,36.281791 C108.085531,36.2143284 107.976223,36.1080597 107.897211,35.9629851 C107.810477,35.8071642 107.759387,35.639403 107.74513,35.4597015 C107.730278,35.28 107.723743,35.0304478 107.723743,34.7110448 L107.723743,31.9402985 L109.82556,31.9402985 L109.82556,31.079403 L107.723743,31.079403 L107.723743,29.3319403 Z M91.7747692,24.798806 C91.4783288,24.9385075 91.1515907,25.0083582 90.7939611,25.0083582 C90.3638551,25.0083582 90.0448399,24.920597 89.8351335,24.7438806 C89.6254271,24.5677612 89.520871,24.3056716 89.520871,23.9570149 C89.520871,23.6489552 89.6111695,23.4065672 89.7917665,23.2304478 C89.9723635,23.0549254 90.208803,22.9247761 90.501085,22.841194 C90.7470297,22.7725373 91.0803024,22.72 91.5009034,22.6835821 C91.9220984,22.6471642 92.2874509,22.6197015 92.5981491,22.601791 L92.5981491,24.2949254 C92.3450756,24.4913433 92.0706157,24.6591045 91.7747692,24.798806 Z M93.6110369,25.7922388 L93.6110369,21.6656716 C93.6110369,21.2728358 93.5510359,20.9444776 93.4328162,20.68 C93.3134083,20.4149254 93.1399401,20.198806 92.9124116,20.0316418 C92.6813187,19.8614925 92.4068588,19.7402985 92.0914081,19.6698507 C91.7753633,19.599403 91.4046642,19.5635821 90.9781225,19.5635821 C90.6133641,19.5635821 90.243259,19.5964179 89.8678073,19.6614925 C89.4923557,19.7271642 89.2048262,19.7868657 89.005813,19.841194 L89.005813,20.881194 L89.0604674,20.881194 C89.4109682,20.7474627 89.7501817,20.6447761 90.079296,20.5737313 C90.4072221,20.5026866 90.7054448,20.4674627 90.9727759,20.4674627 C91.1931756,20.4674627 91.4046642,20.481791 91.6066477,20.5110448 C91.8086312,20.5402985 91.9820994,20.5964179 92.1270522,20.68 C92.2785399,20.7671642 92.3949774,20.8865672 92.4763649,21.039403 C92.5571583,21.1916418 92.5981491,21.3844776 92.5981491,21.6161194 L92.5981491,21.7743284 C92.0058621,21.8035821 91.4515956,21.8465672 90.9347555,21.9044776 C90.4185094,21.9629851 89.9759279,22.0740299 89.6076051,22.2370149 C89.2428466,22.400597 88.9618519,22.6244776 88.765215,22.9092537 C88.5679841,23.1946269 88.4699627,23.5677612 88.4699627,24.0286567 C88.4699627,24.5910448 88.6594707,25.0531343 89.0390809,25.4161194 C89.418097,25.7797015 89.8802828,25.960597 90.4262323,25.960597 C90.7220788,25.960597 90.9799048,25.9331343 91.2003044,25.8764179 C91.420704,25.8202985 91.6155587,25.7504478 91.7854625,25.6668657 C91.9304154,25.601194 92.0789326,25.5134328 92.2327965,25.4029851 C92.3860664,25.2925373 92.5078505,25.2059701 92.5981491,25.1444776 L92.5981491,25.7922388 L93.6110369,25.7922388 Z M89.8684014,30.9104478 C89.4816624,30.9104478 89.1180921,30.9874627 88.7788786,31.1420896 C88.4390711,31.2961194 88.0636194,31.5480597 87.6519295,31.8961194 C87.5117292,31.5874627 87.2972702,31.3462687 87.0103348,31.1719403 C86.7228054,30.9976119 86.3734927,30.9104478 85.9618028,30.9104478 C85.6041732,30.9104478 85.267336,30.9850746 84.9518853,31.1337313 C84.6352465,31.2829851 84.3186076,31.4901493 84.0013747,31.7546269 L84.0013747,31.079403 L82.9825462,31.079403 L82.9825462,37.161194 L84.0013747,37.161194 L84.0013747,32.6202985 C84.278805,32.4059701 84.5580175,32.2298507 84.837824,32.0919403 C85.1176306,31.9540299 85.3968431,31.8853731 85.6748674,31.8853731 C85.9671495,31.8853731 86.1911135,31.9241791 86.3467596,32.0029851 C86.5018117,32.080597 86.6212196,32.1976119 86.7037952,32.3534328 C86.779836,32.4985075 86.8297378,32.6919403 86.8529065,32.9331343 C86.8766693,33.1749254 86.8885507,33.4298507 86.8885507,33.6979104 L86.8885507,37.161194 L87.9067852,37.161194 L87.9067852,33.2680597 C87.9067852,33.159403 87.9032207,33.0495522 87.8960919,32.9385075 C87.8889631,32.8280597 87.880052,32.7313433 87.8687647,32.6477612 C88.1539179,32.4262687 88.4390711,32.2435821 88.7248183,32.1002985 C89.0099715,31.9564179 89.2957188,31.8853731 89.580872,31.8853731 C89.873748,31.8853731 90.097118,31.9253731 90.2527641,32.0047761 C90.4078162,32.0853731 90.52663,32.2029851 90.6103938,32.358806 C90.6864346,32.5038806 90.7357423,32.6985075 90.7595051,32.9414925 C90.7826738,33.1850746 90.7945552,33.4370149 90.7945552,33.6979104 L90.7945552,37.161194 L91.8127897,37.161194 L91.8127897,33.2137313 C91.8127897,32.4877612 91.6547673,31.9223881 91.3387225,31.5176119 C91.0226777,31.1134328 90.5325707,30.9104478 89.8684014,30.9104478 Z M94.1409466,33.4423881 C94.1849077,32.9635821 94.3672869,32.5623881 94.6910546,32.239403 C95.0142282,31.9164179 95.4484927,31.7546269 95.9938482,31.7546269 C96.5356392,31.7546269 96.9390122,31.9014925 97.2045611,32.1958209 C97.47011,32.4895522 97.6049637,32.9050746 97.6085281,33.4423881 L94.1409466,33.4423881 Z M96.0479085,30.9104478 C95.166904,30.9104478 94.4563973,31.2029851 93.9163885,31.7874627 C93.3763796,32.3719403 93.1060782,33.161194 93.1060782,34.1552239 C93.1060782,35.161194 93.388261,35.9367164 93.9514385,36.4829851 C94.5146161,37.0292537 95.2987873,37.3026866 96.3027641,37.3026866 C96.696632,37.3026866 97.0720837,37.2531343 97.4297133,37.1552239 C97.7873429,37.0573134 98.1372496,36.9361194 98.4806216,36.7910448 L98.4806216,35.6746269 L98.4265613,35.6746269 C98.2495287,35.8346269 97.9524941,35.9964179 97.5354576,36.161791 C97.1184211,36.3271642 96.7037608,36.4095522 96.2920709,36.4095522 C95.9813727,36.4095522 95.6968136,36.3659701 95.4389876,36.278806 C95.1805676,36.1916418 94.9571976,36.0608955 94.7700658,35.8865672 C94.574617,35.7092537 94.4207531,35.481194 94.3090681,35.2035821 C94.1967891,34.9259701 94.1409466,34.600597 94.1409466,34.2262687 L98.6000295,34.2262687 L98.6000295,33.6710448 C98.6000295,32.7892537 98.3784417,32.1086567 97.9364542,31.6292537 C97.4932787,31.1498507 96.8641595,30.9104478 96.0479085,30.9104478 Z M83.3104723,20.9683582 C83.3972064,21.1068657 83.4566133,21.2979104 83.4892871,21.5426866 C83.5213668,21.7880597 83.5380008,22.0501493 83.5380008,22.3295522 L83.5380008,25.7922388 L84.5568293,25.7922388 L84.5568293,21.8447761 C84.5568293,21.1008955 84.3851434,20.5307463 84.0417714,20.1355224 C83.6989935,19.7397015 83.2005695,19.5420896 82.5464994,19.5420896 C82.1888698,19.5420896 81.8407453,19.6161194 81.5009377,19.7647761 C81.1617243,19.9140299 80.83261,20.121194 80.514783,20.3862687 L80.514783,19.7110448 L79.4965485,19.7110448 L79.4965485,25.7922388 L80.514783,25.7922388 L80.514783,21.2513433 C80.7928073,21.0376119 81.0839012,20.8614925 81.3868765,20.7235821 C81.6904458,20.5856716 81.9809456,20.5164179 82.259564,20.5164179 C82.5304595,20.5164179 82.7508592,20.5534328 82.9201689,20.6280597 C83.0894786,20.7026866 83.2201738,20.8161194 83.3104723,20.9683582 Z M74.6210232,31.079403 C74.2990377,31.079403 73.9841811,31.1474627 73.6752651,31.2835821 C73.3663492,31.4197015 73.0099077,31.6513433 72.6047526,31.9779104 L72.6047526,31.079403 L71.5865181,31.079403 L71.5865181,37.161194 L72.6047526,37.161194 L72.6047526,32.8435821 C72.8762421,32.6226866 73.1578309,32.441194 73.4501129,32.3020896 C73.742989,32.161791 74.0465583,32.0919403 74.3608209,32.0919403 C74.5556756,32.0919403 74.7243912,32.1002985 74.8669678,32.1164179 C75.0095444,32.1331343 75.1568735,32.159403 75.3083612,32.1958209 L75.3630155,32.1958209 L75.3630155,31.1450746 C75.203805,31.119403 75.0849912,31.1020896 75.0053859,31.0931343 C74.9257806,31.0841791 74.7974617,31.079403 74.6210232,31.079403 Z M25.9127013,20.201791 L25.9346819,20.2340299 C25.6899254,21.1707463 25.4926944,22.2119403 25.5942802,23.2501493 C25.6156667,23.2698507 25.6631923,23.2847761 25.6816084,23.2614925 C27.0776709,21.4871642 28.4470002,20.2907463 29.9796985,19.5271642 C30.0153427,19.5098507 29.9309849,19.4447761 29.8929645,19.438806 L29.2323596,19.3176119 C28.2159073,19.2901493 27.1798507,19.4776119 26.2869648,19.881194 C26.1521112,19.9635821 25.9596328,20.0244776 25.9127013,20.201791 Z M23.8138551,32.7504478 C25.7338865,32.9785075 25.2550668,32.0364179 26.4527101,31.4304478 C24.1108896,31.639403 23.3587981,31.5432836 21.7001571,30.9510448 C22.5817557,31.8919403 22.0215485,32.5379104 23.8138551,32.7504478 Z M21.3864886,19.881194 C20.4936027,19.4776119 19.4569521,19.2901493 18.4404998,19.3176119 L17.7798949,19.438806 C17.7418745,19.4447761 17.6575167,19.5098507 17.6925668,19.5271642 C19.2252651,20.2907463 20.5951885,21.4871642 21.991251,23.2614925 C22.0102612,23.2847761 22.0571927,23.2698507 22.0791732,23.2501493 C22.1813531,22.2119403 21.9835281,21.1707463 21.7381775,20.2340299 L21.7607522,20.201791 C21.7138207,20.0244776 21.5213423,19.9635821 21.3864886,19.881194 Z M40.2071927,3.30985075 C35.8081108,5.25074627 33.5542125,9.04358209 32.5888502,11.7397015 C34.0942213,12.1558209 35.3785988,12.320597 35.3785988,12.320597 C35.3785988,12.320597 36.4520817,7.6238806 40.2071927,3.30985075 Z M86.1323007,18.6931343 L87.2812304,18.6931343 L87.2812304,17.6310448 L86.1323007,17.6310448 L86.1323007,18.6931343 Z M16.1230361,9.82985075 C16.1230361,9.82985075 18.5117881,7.17671642 23.1015662,6.98686567 C28.0103594,6.78447761 29.1361204,7.93492537 29.1361204,7.93492537 C29.1361204,7.93492537 27.3129222,4.20776119 25.4897241,3.95462687 C23.426522,3.66865672 21.5379762,4.40298507 20.1472604,5.21791045 C18.6377308,6.10268657 17.2553319,7.05014925 16.1230361,9.82985075 Z M46.9017577,25.7922388 L47.9746465,25.7922388 L47.9746465,18.6435821 L50.8570699,18.6435821 L50.8570699,17.6853731 L44.0199283,17.6853731 L44.0199283,18.6435821 L46.9017577,18.6435821 L46.9017577,25.7922388 Z M65.750383,33.4423881 C65.79375,32.9635821 65.9773174,32.5623881 66.300491,32.239403 C66.6236646,31.9164179 67.0579291,31.7546269 67.6032846,31.7546269 C68.1450756,31.7546269 68.5484485,31.9014925 68.8145915,32.1958209 C69.0795463,32.4895522 69.2144,32.9050746 69.2179645,33.4423881 L65.750383,33.4423881 Z M67.6573449,30.9104478 C66.7763403,30.9104478 66.0658337,31.2029851 65.5252308,31.7874627 C64.985816,32.3719403 64.7155145,33.161194 64.7155145,34.1552239 C64.7155145,35.161194 64.9976974,35.9367164 65.5608749,36.4829851 C66.1240524,37.0292537 66.9082237,37.3026866 67.9122005,37.3026866 C68.3054743,37.3026866 68.680926,37.2531343 69.0391496,37.1552239 C69.3967793,37.0573134 69.746686,36.9361194 70.0900579,36.7910448 L70.0900579,35.6746269 L70.0354036,35.6746269 C69.858965,35.8346269 69.5613364,35.9964179 69.1442999,36.161791 C68.7272634,36.3271642 68.3131972,36.4095522 67.9015073,36.4095522 C67.5908091,36.4095522 67.30625,36.3659701 67.0478299,36.278806 C66.7900039,36.1916418 66.5666339,36.0608955 66.3789081,35.8865672 C66.1840534,35.7092537 66.0301895,35.481194 65.9185045,35.2035821 C65.8068195,34.9259701 65.750383,34.600597 65.750383,34.2262687 L70.2088718,34.2262687 L70.2088718,33.6710448 C70.2088718,32.7892537 69.987878,32.1086567 69.5452965,31.6292537 C69.1033091,31.1498507 68.4735958,30.9104478 67.6573449,30.9104478 Z M86.1970542,25.7922388 L87.2158828,25.7922388 L87.2158828,19.7110448 L86.1970542,19.7110448 L86.1970542,25.7922388 Z M58.8175962,25.9391045 C59.6088963,25.9391045 60.2320748,25.761194 60.6895081,25.4053731 C61.1457531,25.0501493 61.3744698,24.5940299 61.3744698,24.039403 C61.3744698,23.5958209 61.2467449,23.240597 60.990107,22.9719403 C60.7334692,22.7068657 60.3687107,22.52 59.8952376,22.4113433 C59.7401856,22.3749254 59.546519,22.3349254 59.3130499,22.2913433 C59.0801748,22.2477612 58.8692802,22.2041791 58.6821485,22.160597 C58.342935,22.081194 58.0969904,21.9779104 57.9455027,21.8507463 C57.7904507,21.7229851 57.7126277,21.5343284 57.7126277,21.2841791 C57.7126277,21.001194 57.8403525,20.7880597 58.0969904,20.6447761 C58.3536282,20.5008955 58.6678908,20.4298507 59.0397781,20.4298507 C59.3974077,20.4298507 59.7621661,20.4955224 60.1340534,20.6280597 C60.5059407,20.760597 60.8219855,20.9229851 61.0821877,21.1152239 L61.136248,21.1152239 L61.136248,20.0214925 C60.8908975,19.8937313 60.5831697,19.7862687 60.2130646,19.6973134 C59.8423655,19.6083582 59.4764189,19.5635821 59.1152249,19.5635821 C58.7290799,19.5635821 58.3797673,19.6137313 58.0672869,19.7134328 C57.7548066,19.8131343 57.4975746,19.9486567 57.2955911,20.118806 C57.0852907,20.2931343 56.9296445,20.4913433 56.8262765,20.7122388 C56.7240966,20.9337313 56.6724126,21.1701493 56.6724126,21.4202985 C56.6724126,21.8197015 56.7835035,22.1564179 57.0056854,22.4304478 C57.2272732,22.7044776 57.603913,22.9122388 58.1350108,23.0537313 C58.3263011,23.1050746 58.5383837,23.1516418 58.7712588,23.1952239 C59.0041339,23.238806 59.1930479,23.2770149 59.3374067,23.3098507 C59.7277101,23.3964179 59.9914768,23.5020896 60.1287068,23.6256716 C60.2659368,23.7486567 60.3348488,23.9301493 60.3348488,24.1695522 C60.3348488,24.481791 60.2083121,24.7104478 59.9552386,24.8561194 C59.7027592,25.001194 59.3516644,25.0734328 58.9049244,25.0734328 C58.5431363,25.0734328 58.1653083,25.001791 57.7720346,24.8585075 C57.3781667,24.7152239 57.0205371,24.521791 56.6991457,24.278209 L56.6450854,24.278209 L56.6450854,25.4274627 C56.8975648,25.5546269 57.2112333,25.6716418 57.5849028,25.7785075 C57.9591663,25.8853731 58.3696681,25.9391045 58.8175962,25.9391045 Z M47.8433572,34.0304478 L50.0051748,34.0304478 L50.0051748,36.0179104 C49.7449725,36.1265672 49.4425913,36.2155224 49.0974372,36.2841791 C48.752283,36.3534328 48.4065348,36.3874627 48.0601925,36.3874627 C47.1138403,36.3874627 46.3659073,36.0961194 45.8169874,35.5140299 C45.2680676,34.9313433 44.9936076,34.1158209 44.9936076,33.0668657 C44.9936076,32.0722388 45.2561862,31.2835821 45.7819374,30.7008955 C46.3070945,30.118806 47.0217596,29.8274627 47.9247447,29.8274627 C48.3251473,29.8274627 48.683965,29.8644776 49.0000098,29.9391045 C49.3160546,30.0137313 49.5982374,30.1068657 49.8477465,30.2191045 C50.0538885,30.3134328 50.2630008,30.4316418 50.4762716,30.5731343 C50.6895424,30.7146269 50.8517233,30.8292537 50.9640024,30.9164179 L51.0614297,30.9164179 L51.0614297,29.6370149 C50.5089454,29.3719403 49.9932934,29.1838806 49.5144737,29.0728358 C49.036248,28.9623881 48.5675275,28.9068657 48.1089061,28.9068657 C46.7942311,28.9068657 45.7605509,29.281791 45.0072712,30.0316418 C44.2539916,30.7808955 43.8773517,31.8035821 43.8773517,33.0991045 C43.8773517,33.8071642 43.9789375,34.4250746 44.1809211,34.9534328 C44.3834986,35.481194 44.670434,35.921791 45.0423213,36.2734328 C45.4106441,36.6220896 45.8567901,36.8829851 46.380759,37.0573134 C46.9041339,37.2316418 47.480381,37.318806 48.1089061,37.318806 C48.5960428,37.318806 49.1010016,37.2429851 49.6225943,37.0925373 C50.144781,36.9420896 50.625977,36.7653731 51.0667763,36.561791 L51.0667763,33.0829851 L47.8433572,33.0829851 L47.8433572,34.0304478 Z M34.4126424,23.4585075 C34.4126424,23.4585075 33.2328211,18.078209 34.9496809,14.4119403 C33.9439218,14.6644776 31.6234878,16.4489552 31.6234878,16.4489552 C31.6234878,16.4489552 30.7644639,18.4973134 29.5840485,23.2429851 C28.5468038,27.4113433 27.8279802,31.2370149 27.8279802,31.2370149 C27.8279802,31.2370149 35.2716663,30.8997015 38.5978594,27.5558209 C37.0960526,25.0758209 38.7053859,19.7916418 40.3153132,17.7420896 C37.0960526,18.9289552 34.4126424,23.4585075 34.4126424,23.4585075 Z M51.510546,24.7438806 C51.3008396,24.5677612 51.1962834,24.3056716 51.1962834,23.9570149 C51.1962834,23.6489552 51.2865819,23.4065672 51.4671789,23.2304478 C51.6477759,23.0549254 51.8848095,22.9247761 52.1770915,22.841194 C52.4224421,22.7725373 52.7557148,22.72 53.1763158,22.6835821 C53.5969167,22.6471642 53.9634574,22.6197015 54.2735615,22.601791 L54.2735615,24.2949254 C54.0210821,24.4913433 53.7460281,24.6591045 53.4501817,24.798806 C53.1537412,24.9385075 52.8270031,25.0083582 52.4693735,25.0083582 C52.0392675,25.0083582 51.7202524,24.920597 51.510546,24.7438806 Z M53.4608749,25.6668657 C53.6052337,25.601194 53.7543451,25.5134328 53.9076149,25.4029851 C54.0614788,25.2925373 54.183263,25.2059701 54.2735615,25.1444776 L54.2735615,25.7922388 L55.2870434,25.7922388 L55.2870434,21.6656716 C55.2870434,21.2728358 55.2276365,20.9444776 55.1076345,20.68 C54.9888207,20.4149254 54.8159466,20.198806 54.587824,20.0316418 C54.3567311,19.8614925 54.0834593,19.7402985 53.7668205,19.6698507 C53.4507757,19.599403 53.0800766,19.5635821 52.653535,19.5635821 C52.2887765,19.5635821 51.9186714,19.5964179 51.5432198,19.6614925 C51.1677681,19.7271642 50.8802386,19.7868657 50.6818195,19.841194 L50.6818195,20.881194 L50.7358798,20.881194 C51.0863806,20.7474627 51.4255941,20.6447761 51.7547084,20.5737313 C52.0832286,20.5026866 52.3808572,20.4674627 52.6481883,20.4674627 C52.868588,20.4674627 53.0800766,20.481791 53.2820601,20.5110448 C53.4846377,20.5402985 53.6575118,20.5964179 53.8024647,20.68 C53.9539523,20.7671642 54.0703898,20.8865672 54.1517773,21.039403 C54.2331648,21.1916418 54.2735615,21.3844776 54.2735615,21.6161194 L54.2735615,21.7743284 C53.6812745,21.8035821 53.1270081,21.8465672 52.6101679,21.9044776 C52.0939218,21.9629851 51.6519344,22.0740299 51.2830175,22.2370149 C50.918259,22.400597 50.6372643,22.6244776 50.4406275,22.9092537 C50.2439906,23.1946269 50.1453751,23.5677612 50.1453751,24.0286567 C50.1453751,24.5910448 50.3348832,25.0531343 50.7138993,25.4161194 C51.0941035,25.7797015 51.5556952,25.960597 52.1010507,25.960597 C52.3968971,25.960597 52.6553172,25.9331343 52.8757168,25.8764179 C53.0961165,25.8202985 53.2909711,25.7504478 53.4608749,25.6668657 Z M61.3358553,35.92 L59.4615672,31.079403 L58.3560045,31.079403 L60.7887176,37.161194 L61.8128928,37.161194 L64.2616457,31.079403 L63.1941035,31.079403 L61.3358553,35.92 Z M56.3765662,35.8620896 C56.0682443,36.2525373 55.6428908,36.4477612 55.1010998,36.4477612 C54.5515858,36.4477612 54.123856,36.2507463 53.8167223,35.8573134 C53.5101826,35.4626866 53.3563187,34.8853731 53.3563187,34.1229851 C53.3563187,33.3349254 53.5089945,32.7498507 53.814346,32.3671642 C54.1191035,31.9844776 54.5486155,31.7928358 55.1010998,31.7928358 C55.6458612,31.7928358 56.0724028,31.9844776 56.3795365,32.3671642 C56.6866703,32.7498507 56.8399401,33.3349254 56.8399401,34.1229851 C56.8399401,34.8925373 56.6854821,35.4722388 56.3765662,35.8620896 Z M55.1010998,30.9104478 C54.2450462,30.9104478 53.5654311,31.198806 53.0610664,31.7737313 C52.5572958,32.3492537 52.3054104,33.1319403 52.3054104,34.1229851 C52.3054104,35.1140299 52.5572958,35.8961194 53.0610664,36.4698507 C53.5654311,37.0429851 54.2450462,37.3295522 55.1010998,37.3295522 C55.9494305,37.3295522 56.6272634,37.0429851 57.1322221,36.4698507 C57.6377749,35.8961194 57.8908484,35.1140299 57.8908484,34.1229851 C57.8908484,33.1319403 57.6377749,32.3492537 57.1322221,31.7737313 C56.6272634,31.198806 55.9494305,30.9104478 55.1010998,30.9104478 Z M12.8681314,11.7080597 C10.2043254,9.43641791 9.16708071,8.74208955 4.72344364,7.15104478 C7.78408778,11.000597 7.9569619,12.2161194 7.9569619,12.2161194 C7.9569619,12.2161194 10.5500736,11.6955224 12.8681314,11.7080597 Z M8.83915456,32.5480597 C3.51926551,33.0650746 0.856053614,36.560597 0.856053614,36.560597 C0.856053614,36.560597 3.71649647,34.7641791 8.15300471,34.7886567 C12.8485271,34.8149254 15.280052,37.5086567 21.3270817,39.2041791 C32.5983553,42.3659701 39.1521259,35.5247761 39.7176797,28.8925373 C29.262063,42.5522388 18.0311862,31.6555224 8.83915456,32.5480597 Z M19.9256726,30.2519403 C19.1712048,24.1880597 14.3004321,16.2734328 14.3004321,16.2734328 C10.3771995,14.8226866 8.43815789,13.3635821 8.43815789,13.3635821 C8.43815789,13.3635821 9.98451984,17.9450746 10.5500736,22.8722388 C8.00448743,17.8053731 3.4040161,15.5755224 3.4040161,15.5755224 C3.4040161,15.5755224 1.5606196,17.8919403 0.753873723,20.5558209 C3.01668303,23.0202985 5.43692066,28.2125373 5.43692066,28.2125373 C5.43692066,28.2125373 3.08915947,26.0101493 0.638030244,24.4937313 C0.0724764336,26.7677612 -0.40871956,30.4871642 0.534068146,35.2250746 C5.22483798,30.1444776 10.2619501,28.7725373 19.9256726,30.2519403 Z M22.0958071,0.859701493 C19.2032846,-0.087761194 16.1402641,0.101492537 16.1402641,0.101492537 C12.0536626,2.6280597 12.6821877,6.30925373 12.744565,9.3241791 C14.0651807,5.61432836 17.6319717,1.7438806 22.0958071,0.859701493 L22.0958071,0.859701493 Z" id="Fill-1" fill="#343E48" mask="url(#mask-2)"></path>
            </g>
        </g>
    </g>
</svg>