<?xml version="1.0" standalone="no"?>
<!DOCTYPE svg PUBLIC "-//W3C//DTD SVG 20010904//EN"
 "http://www.w3.org/TR/2001/REC-SVG-20010904/DTD/svg10.dtd">
<svg version="1.0" xmlns="http://www.w3.org/2000/svg"
 width="403.000000pt" height="93.000000pt" viewBox="0 0 403.000000 93.000000"
 preserveAspectRatio="xMidYMid meet">

<g transform="translate(0.000000,93.000000) scale(0.100000,-0.100000)"
fill="#000000" stroke="none">
<path d="M416 881 c-14 -21 53 -343 74 -356 4 -3 61 22 127 55 148 75 335 150
487 193 64 19 117 38 118 43 0 5 -12 18 -27 29 -41 31 -123 26 -212 -13 -207
-91 -356 -83 -520 29 -23 16 -44 25 -47 20z"/>
<path d="M1185 710 c-241 -43 -685 -186 -685 -219 0 -14 68 -173 88 -205 13
-21 34 -33 87 -50 39 -12 97 -39 129 -60 32 -20 60 -36 61 -34 2 2 31 46 65
98 96 146 208 285 315 393 111 111 114 108 -60 77z"/>
<path d="M1189 523 c-75 -78 -152 -174 -239 -297 -45 -64 -84 -116 -85 -116
-2 0 -19 9 -37 19 -32 19 -147 46 -156 36 -9 -9 29 -56 70 -85 171 -124 340 7
462 359 20 58 35 111 34 118 -2 9 -21 -5 -49 -34z"/>
</g>
</svg>
