<?xml version="1.0" encoding="UTF-8"?>
<svg version="1.1" xmlns="http://www.w3.org/2000/svg" width="500" height="136">
<path d="M0 0 C4.12918969 3.28419862 7.49013428 7.05937803 11 11 C13.76364068 13.84248328 16.53616863 16.5176515 19.625 19 C23.46575903 22.28012536 25.70447738 24.93134163 26.4375 30.0625 C26 33 26 33 24.375 35.3125 C21.35135013 37.4608828 19.72884194 38 16 38 C9.13008445 35.74951042 4.98984918 31.27984361 0.30029297 25.9777832 C-2.54203838 22.82502578 -2.54203838 22.82502578 -6.51171875 21.8359375 C-9.80387542 23.37606731 -12.00565046 25.42278012 -14.625 27.9375 C-17.36638812 30.54745171 -19.84878673 32.89919116 -23 35 C-21.4721586 38.67689304 -19.24372494 40.90198808 -16.375 43.625 C-14.87941162 45.04510127 -13.41113602 46.49594968 -12 48 C-12 48.66 -12 49.32 -12 50 C-11.10788818 50.40532959 -11.10788818 50.40532959 -10.19775391 50.81884766 C-8.01839445 51.99011416 -6.58078339 53.16129512 -4.8359375 54.8984375 C-4.27132812 55.46046875 -3.70671875 56.0225 -3.125 56.6015625 C-2.5475 57.18679687 -1.97 57.77203125 -1.375 58.375 C-0.49714844 59.24125 -0.49714844 59.24125 0.3984375 60.125 C0.96046875 60.68960938 1.5225 61.25421875 2.1015625 61.8359375 C2.61025879 62.34688965 3.11895508 62.8578418 3.64306641 63.38427734 C7.18381158 67.60029958 7.61141498 71.62001199 7.50390625 76.98828125 C5.99588142 86.00135986 -1.00700711 92.67805996 -8 98 C-6.63643882 102.09068355 -3.88160235 103.28097556 -0.375 105.4375 C0.22957031 105.81970703 0.83414063 106.20191406 1.45703125 106.59570312 C4.52903467 108.52471167 7.63080352 110.35637852 10.80859375 112.10546875 C14.53065916 114.31501798 16.07141067 116.14282133 18 120 C18.65466219 123.92797313 18.14316653 125.69648696 16.4375 129.3125 C14 132 14 132 10.6875 133 C4.0718103 133 -0.77002879 130.80234314 -6.25 127.25 C-10.35896996 124.62411418 -14.49403335 122.14534825 -18.8125 119.875 C-31.52707518 113.03440984 -31.52707518 113.03440984 -34 107 C-34.5643767 103.89592815 -34.47537784 101.88749247 -32.97265625 99.08203125 C-28.52393098 92.71086515 -22.63580649 88.46548251 -16.26953125 84.1484375 C-15.37621094 83.54257813 -14.48289062 82.93671875 -13.5625 82.3125 C-12.73878906 81.77238281 -11.91507812 81.23226562 -11.06640625 80.67578125 C-8.90099813 78.91971304 -8.02220758 77.5638977 -7 75 C-14.19760483 67.46208288 -23.11259532 61.72933924 -32.015625 56.41015625 C-32.67046875 55.94480469 -33.3253125 55.47945312 -34 55 C-34 54.34 -34 53.68 -34 53 C-36.21913136 52.01069255 -36.21913136 52.01069255 -39 52 C-41.08912137 53.77174747 -42.64975841 55.35664863 -44.375 57.4375 C-44.85614258 57.98865479 -45.33728516 58.53980957 -45.83300781 59.10766602 C-47.23958621 60.72438213 -48.62346683 62.35767493 -50 64 C-60.96720297 77.04207921 -60.96720297 77.04207921 -67.9375 77.75 C-73.36941369 77.34416737 -76.37406429 73.72789523 -80 70 C-80.95828903 69.03902009 -81.91801023 68.07946691 -82.87890625 67.12109375 C-84.36721827 65.63665061 -85.85116775 64.14941224 -87.31958008 62.64526367 C-89.89803106 59.98057457 -89.89803106 59.98057457 -93 58 C-93 57.34 -93 56.68 -93 56 C-93.66 56 -94.32 56 -95 56 C-97.08019664 54.15982605 -97.8958658 52.60375682 -98.3671875 49.87109375 C-98.59597782 45.7865137 -98.53026593 43.69597404 -96 40.375 C-92.8062874 38.91121506 -90.57453209 38.55015872 -87.1015625 39.20703125 C-81.94414396 41.15304605 -78.34255121 45.57978054 -74.63671875 49.5 C-73.84910156 50.325 -73.06148437 51.15 -72.25 52 C-71.53328125 52.78375 -70.8165625 53.5675 -70.078125 54.375 C-68.19450083 56.19538028 -68.19450083 56.19538028 -66.1328125 55.984375 C-51.24839581 49.11464422 -38.43357907 37.24662678 -29 24 C-27.92334002 22.59901282 -26.83971641 21.20335584 -25.75 19.8125 C-23.19614437 16.53765054 -23.19614437 16.53765054 -20.65185547 13.25537109 C-19.16717524 11.33422352 -17.67758002 9.41696124 -16.1875 7.5 C-15.70700195 6.87585205 -15.22650391 6.2517041 -14.73144531 5.60864258 C-10.52929822 0.21877009 -6.86734918 -1.93746484 0 0 Z " fill="#FFFFFF" transform="translate(100,2)"/>
<path d="M0 0 C8.55048036 6.74923703 13.40000783 19.41844949 18 29 C20.85563992 25.57573157 23.22249576 22.11730532 25.4375 18.25 C26.03949219 17.20457031 26.64148438 16.15914062 27.26171875 15.08203125 C29.17364465 11.69212218 31.03987646 8.28023359 32.859375 4.83984375 C35.00756328 1.37478663 36.36024003 0.16586369 40.375 -0.875 C44.43285509 -1.01492604 45.87243893 -0.50204885 49 2 C51.62202981 5.93304472 51.25148527 9.26625069 51.1953125 13.82421875 C51.1924826 14.68561966 51.18965271 15.54702057 51.18673706 16.43452454 C51.17554237 19.18565769 51.15043921 21.93646525 51.125 24.6875 C51.11496927 26.55272967 51.10584359 28.41796445 51.09765625 30.28320312 C51.07560538 34.8555942 51.04108049 39.42774189 51 44 C47.37 44 43.74 44 40 44 C39.93941406 42.57945313 39.87882812 41.15890625 39.81640625 39.6953125 C39.73200709 37.83853091 39.64735877 35.98176064 39.5625 34.125 C39.52318359 33.18785156 39.48386719 32.25070313 39.44335938 31.28515625 C39.40146484 30.38925781 39.35957031 29.49335937 39.31640625 28.5703125 C39.26141968 27.32918701 39.26141968 27.32918701 39.20532227 26.06298828 C39.11761673 23.93820571 39.11761673 23.93820571 38 22 C37.39671875 23.09699219 36.7934375 24.19398437 36.171875 25.32421875 C35.3648274 26.77878128 34.55752208 28.23320083 33.75 29.6875 C33.35425781 30.40873047 32.95851563 31.12996094 32.55078125 31.87304688 C26.87425831 42.06287085 26.87425831 42.06287085 23 44 C14.65052866 44.40400668 14.65052866 44.40400668 11 42 C9.5078125 40.00390625 9.5078125 40.00390625 8.125 37.5625 C7.6196875 36.67949219 7.114375 35.79648437 6.59375 34.88671875 C5.80484375 33.45779297 5.80484375 33.45779297 5 32 C4.4328125 30.97519531 3.865625 29.95039062 3.28125 28.89453125 C1.84159512 26.26987742 0.41924725 23.6357449 -1 21 C-1.33 28.59 -1.66 36.18 -2 44 C-5.96 44 -9.92 44 -14 44 C-14.07431132 38.82221598 -14.12867808 33.64474431 -14.16479492 28.46655273 C-14.17985553 26.70608104 -14.20030826 24.9456467 -14.22631836 23.18530273 C-14.26282229 20.65078497 -14.27975354 18.11676448 -14.29296875 15.58203125 C-14.31619453 14.40674614 -14.31619453 14.40674614 -14.33988953 13.2077179 C-14.34165132 7.45107131 -13.12890928 4.28097423 -9.25 0.125 C-5.71758845 -1.64120578 -3.73421913 -1.15889559 0 0 Z " fill="#FFFFFF" transform="translate(382,15)"/>
<path d="M0 0 C1.23082306 0.00022659 1.23082306 0.00022659 2.48651123 0.00045776 C3.80078094 0.01594162 3.80078094 0.01594162 5.14160156 0.03173828 C6.04597961 0.03456818 6.95035767 0.03739807 7.88214111 0.04031372 C10.76563851 0.05149296 13.64882332 0.07659345 16.53222656 0.10205078 C18.48925332 0.1120835 20.44628496 0.12120884 22.40332031 0.12939453 C27.19640919 0.15142493 31.9892649 0.18593934 36.78222656 0.22705078 C36.78222656 4.18705078 36.78222656 8.14705078 36.78222656 12.22705078 C24.90222656 12.22705078 13.02222656 12.22705078 0.78222656 12.22705078 C0.78222656 13.54705078 0.78222656 14.86705078 0.78222656 16.22705078 C12.66222656 16.22705078 24.54222656 16.22705078 36.78222656 16.22705078 C36.78222656 20.18705078 36.78222656 24.14705078 36.78222656 28.22705078 C24.90222656 28.22705078 13.02222656 28.22705078 0.78222656 28.22705078 C0.78222656 29.54705078 0.78222656 30.86705078 0.78222656 32.22705078 C12.99222656 32.22705078 25.20222656 32.22705078 37.78222656 32.22705078 C37.78222656 36.18705078 37.78222656 40.14705078 37.78222656 44.22705078 C31.74996717 44.32604639 25.71818229 44.39857986 19.68530273 44.44677734 C17.63378664 44.46687277 15.58232767 44.49415402 13.53100586 44.52880859 C10.57944631 44.57741747 7.62864508 44.6000403 4.67675781 44.61767578 C3.76199173 44.63832092 2.84722565 44.65896606 1.90473938 44.68023682 C-2.29413219 44.68171103 -4.60746315 44.59390982 -8.27368164 42.39013672 C-12.66652353 37.50245881 -11.44057961 30.66099504 -11.45800781 24.45800781 C-11.46770739 22.36629372 -11.49874106 20.27556541 -11.53027344 18.18408203 C-11.53680484 16.84684826 -11.54205477 15.50960748 -11.54589844 14.17236328 C-11.55524414 12.96080566 -11.56458984 11.74924805 -11.57421875 10.50097656 C-11.18094833 6.88881473 -10.45860934 5.06573815 -8.21777344 2.22705078 C-5.3874289 0.50421201 -3.29374003 -0.02033173 0 0 Z " fill="#FFFFFF" transform="translate(333.2177734375,70.77294921875)"/>
<path d="M0 0 C1.26108078 0.0001133 1.26108078 0.0001133 2.54763794 0.00022888 C3.91020218 0.00797081 3.91020218 0.00797081 5.30029297 0.01586914 C6.22969696 0.01728409 7.15910095 0.01869904 8.1166687 0.02015686 C11.09197171 0.02576486 14.06720011 0.03831871 17.04248047 0.05102539 C19.0568023 0.05603936 21.07112531 0.06060245 23.08544922 0.06469727 C28.02948849 0.07573689 32.97347182 0.0930069 37.91748047 0.11352539 C37.91748047 4.07352539 37.91748047 8.03352539 37.91748047 12.11352539 C26.03748047 12.11352539 14.15748047 12.11352539 1.91748047 12.11352539 C1.91748047 13.43352539 1.91748047 14.75352539 1.91748047 16.11352539 C13.79748047 16.11352539 25.67748047 16.11352539 37.91748047 16.11352539 C37.91748047 20.07352539 37.91748047 24.03352539 37.91748047 28.11352539 C26.03748047 28.11352539 14.15748047 28.11352539 1.91748047 28.11352539 C1.91748047 29.43352539 1.91748047 30.75352539 1.91748047 32.11352539 C13.79748047 32.11352539 25.67748047 32.11352539 37.91748047 32.11352539 C37.91748047 36.07352539 37.91748047 40.03352539 37.91748047 44.11352539 C32.0276376 44.21253355 26.13828102 44.2850602 20.24780273 44.33325195 C18.24478719 44.35334531 16.24183015 44.38062505 14.23901367 44.4152832 C11.35694939 44.4639015 8.47566181 44.48651691 5.59326172 44.50415039 C4.25392326 44.5351181 4.25392326 44.5351181 2.88752747 44.56671143 C-1.30435513 44.56821824 -3.49349429 44.4812821 -7.12475586 42.21411133 C-11.64020045 37.3692572 -10.34425838 30.82858994 -10.37768555 24.56542969 C-10.39487604 22.31976966 -10.43875953 20.07559106 -10.48291016 17.83032227 C-10.49303954 16.39739036 -10.50155488 14.96444596 -10.50830078 13.53149414 C-10.5228833 12.22978271 -10.53746582 10.92807129 -10.55249023 9.58691406 C-10.00819596 5.56422594 -8.92146157 3.95312803 -6.08251953 1.11352539 C-3.79620459 -0.02963208 -2.53904547 -0.00760193 0 0 Z " fill="#FFFFFF" transform="translate(449.08251953125,14.886474609375)"/>
<path d="M0 0 C1.29210136 0.00212242 1.29210136 0.00212242 2.61030579 0.00428772 C5.36133294 0.00988485 8.11227869 0.02243679 10.86328125 0.03515625 C12.72851445 0.04017162 14.59374892 0.04473446 16.45898438 0.04882812 C21.03128136 0.05985333 25.6035175 0.07711598 30.17578125 0.09765625 C30.17578125 4.05765625 30.17578125 8.01765625 30.17578125 12.09765625 C17.96578125 12.42765625 5.75578125 12.75765625 -6.82421875 13.09765625 C-7.15421875 14.08765625 -7.48421875 15.07765625 -7.82421875 16.09765625 C-6.98238037 16.0819458 -6.14054199 16.06623535 -5.27319336 16.05004883 C-2.12168693 15.99863374 1.02960424 15.96116745 4.18139648 15.93286133 C5.54019242 15.91786216 6.89894066 15.89745587 8.25756836 15.87133789 C22.41725539 15.60613626 22.41725539 15.60613626 28.17578125 19.09765625 C31.5363062 22.63051581 32.44349709 25.40619981 32.61328125 30.16015625 C32.41639295 34.2640467 32.02630511 36.97127525 29.17578125 40.09765625 C23.4894155 44.07042986 19.36619083 44.65241541 12.5234375 44.48828125 C11.62330429 44.48262146 10.72317108 44.47696167 9.79576111 44.47113037 C6.94270894 44.44887855 4.09094881 44.39870424 1.23828125 44.34765625 C-0.70505989 44.32757673 -2.64842086 44.30932851 -4.59179688 44.29296875 C-9.33642943 44.2490506 -14.08010562 44.1801019 -18.82421875 44.09765625 C-18.82421875 40.13765625 -18.82421875 36.17765625 -18.82421875 32.09765625 C-6.28421875 31.76765625 6.25578125 31.43765625 19.17578125 31.09765625 C19.17578125 30.43765625 19.17578125 29.77765625 19.17578125 29.09765625 C18.32870605 29.08307373 17.48163086 29.06849121 16.60888672 29.0534668 C13.44396191 28.99214448 10.27966621 28.91794273 7.11523438 28.83520508 C5.74978875 28.80210239 4.38421112 28.77402539 3.01855469 28.7512207 C1.04724901 28.71740634 -0.92368066 28.66357339 -2.89453125 28.609375 C-4.66981201 28.57009888 -4.66981201 28.57009888 -6.48095703 28.5300293 C-11.50532307 27.88024455 -14.76541822 26.2400463 -18.19921875 22.53515625 C-20.33872371 18.00928038 -20.52453227 14.03242364 -19.82421875 9.09765625 C-18.19382641 4.88896904 -15.67930402 3.37923733 -11.82421875 1.09765625 C-7.87657605 -0.21822465 -4.11332519 -0.02534648 0 0 Z " fill="#FFFFFF" transform="translate(398.82421875,70.90234375)"/>
<path d="M0 0 C1.29210136 0.00212242 1.29210136 0.00212242 2.61030579 0.00428772 C5.36133294 0.00988485 8.11227869 0.02243679 10.86328125 0.03515625 C12.72851445 0.04017162 14.59374892 0.04473446 16.45898438 0.04882812 C21.03128136 0.05985333 25.6035175 0.07711598 30.17578125 0.09765625 C30.17578125 4.05765625 30.17578125 8.01765625 30.17578125 12.09765625 C17.96578125 12.42765625 5.75578125 12.75765625 -6.82421875 13.09765625 C-7.15421875 14.08765625 -7.48421875 15.07765625 -7.82421875 16.09765625 C-6.98238037 16.0819458 -6.14054199 16.06623535 -5.27319336 16.05004883 C-2.12168693 15.99863374 1.02960424 15.96116745 4.18139648 15.93286133 C5.54019242 15.91786216 6.89894066 15.89745587 8.25756836 15.87133789 C24.34577228 15.57001641 24.34577228 15.57001641 30.55078125 21.28515625 C32.60583127 24.84197359 33.36896585 28.03305237 33.17578125 32.09765625 C31.60680241 37.32758573 29.71077744 40.07432546 25.17578125 43.09765625 C21.7397336 44.81568007 17.79139229 44.21731805 14.01171875 44.1953125 C13.1045108 44.19389755 12.19730286 44.1924826 11.26260376 44.19102478 C8.3586297 44.18541721 5.4547321 44.17286343 2.55078125 44.16015625 C0.58463653 44.15514223 -1.3815094 44.15057915 -3.34765625 44.14648438 C-8.17320665 44.13544531 -12.99869972 44.1181756 -17.82421875 44.09765625 C-17.82421875 40.13765625 -17.82421875 36.17765625 -17.82421875 32.09765625 C-5.28421875 32.09765625 7.25578125 32.09765625 20.17578125 32.09765625 C20.17578125 30.77765625 20.17578125 29.45765625 20.17578125 28.09765625 C19.29841309 28.1133667 18.42104492 28.12907715 17.51708984 28.14526367 C14.24066173 28.19660001 10.96466527 28.23410622 7.68798828 28.26245117 C6.27385688 28.2774745 4.85977157 28.2978993 3.44580078 28.32397461 C1.40515728 28.36064579 -0.63486667 28.37744661 -2.67578125 28.390625 C-4.51390381 28.41419067 -4.51390381 28.41419067 -6.38916016 28.43823242 C-11.00864008 27.98022428 -14.39984236 26.56473343 -17.6484375 23.21875 C-20.14342769 18.71782086 -20.25588894 13.25600718 -19.26171875 8.28515625 C-14.3965427 0.88162747 -8.36885598 -0.05156923 0 0 Z " fill="#FFFFFF" transform="translate(456.82421875,70.90234375)"/>
<path d="M0 0 C3.00266932 2.37145986 5.48042841 5.1297922 8 8 C8.57621094 8.64582031 9.15242188 9.29164062 9.74609375 9.95703125 C10.88025459 11.24311202 12.00650716 12.5362074 13.125 13.8359375 C16.68674717 17.94678736 20.35529477 21.96278805 24 26 C24.33 17.42 24.66 8.84 25 0 C28.96 0 32.92 0 37 0 C37.04961356 5.01707535 37.08582043 10.03400635 37.10986328 15.05126953 C37.1198914 16.75637298 37.13351726 18.46145936 37.15087891 20.16650391 C37.17526803 22.62406642 37.18651512 25.08140061 37.1953125 27.5390625 C37.20563507 28.29555084 37.21595764 29.05203918 37.22659302 29.83145142 C37.2275231 34.26627271 36.83751201 37.94098405 35 42 C31.97792605 44.01471597 31.08273301 44.33719034 27.625 44.4375 C26.87476563 44.47746094 26.12453125 44.51742187 25.3515625 44.55859375 C21.83243837 43.72265562 20.39520205 41.66375501 18 39 C17.0455978 37.98182743 16.08982178 36.96494124 15.1328125 35.94921875 C14.12912332 34.86298072 13.1265317 33.77572759 12.125 32.6875 C11.63386719 32.15705078 11.14273438 31.62660156 10.63671875 31.08007812 C6.67541537 26.784379 2.85148212 22.40169385 -1 18 C-1.33 26.58 -1.66 35.16 -2 44 C-5.96 44 -9.92 44 -14 44 C-14.09904974 38.53740707 -14.17155375 33.07533951 -14.21972656 27.61206055 C-14.23981305 25.75454602 -14.26708778 23.89709449 -14.30175781 22.03979492 C-14.35040737 19.36621537 -14.37299809 16.69347344 -14.390625 14.01953125 C-14.41127014 13.19226028 -14.43191528 12.36498932 -14.45318604 11.51264954 C-14.45473389 7.51431934 -14.29772291 5.48643112 -12.16308594 1.9987793 C-8.21114739 -1.6529725 -5.0050181 -1.39484111 0 0 Z " fill="#FFFFFF" transform="translate(205,15)"/>
<path d="M0 0 C8.04709579 4.74172956 14.09281131 13.89398023 20 21 C22.475 23.97 22.475 23.97 25 27 C25.33 18.09 25.66 9.18 26 0 C29.96 0 33.92 0 38 0 C38.12381149 5.46256275 38.21443826 10.92430488 38.2746582 16.38793945 C38.29976702 18.24550609 38.33386134 20.10297427 38.37719727 21.96020508 C38.43801124 24.63387358 38.4662452 27.30623365 38.48828125 29.98046875 C38.51408768 30.80773972 38.5398941 31.63501068 38.56648254 32.48735046 C38.56857537 36.81221269 38.40732539 38.47911671 35.65307617 42.0012207 C32.55178169 44.33767952 30.87899748 45 27 45 C21.9137765 43.37673718 19.23067399 40.29546779 15.92578125 36.31640625 C13.80914788 33.77043548 11.60262412 31.32427826 9.375 28.875 C6.14342675 25.31676953 3.08430304 21.70116365 0 18 C-0.33 26.58 -0.66 35.16 -1 44 C-4.96 44 -8.92 44 -13 44 C-13.09906509 38.67982385 -13.17156072 33.36018753 -13.21972656 28.03930664 C-13.23981053 26.2302922 -13.26708341 24.42134243 -13.30175781 22.61254883 C-13.35041892 20.00846379 -13.37300051 17.40523885 -13.390625 14.80078125 C-13.41127014 13.99538406 -13.43191528 13.18998688 -13.45318604 12.36018372 C-13.45477127 8.3703327 -13.29650486 6.46636632 -11.10058594 3.01245117 C-7.49413193 -0.44268602 -4.95476595 -0.63932464 0 0 Z " fill="#FFFFFF" transform="translate(276,71)"/>
<path d="M0 0 C0.90720795 0.00141495 1.81441589 0.0028299 2.74911499 0.00428772 C5.65308905 0.00989529 8.55698665 0.02244907 11.4609375 0.03515625 C13.42708222 0.04017027 15.39322815 0.04473335 17.359375 0.04882812 C22.1849254 0.05986719 27.01041847 0.0771369 31.8359375 0.09765625 C31.8359375 4.05765625 31.8359375 8.01765625 31.8359375 12.09765625 C19.9559375 12.09765625 8.0759375 12.09765625 -4.1640625 12.09765625 C-4.1640625 13.41765625 -4.1640625 14.73765625 -4.1640625 16.09765625 C7.7159375 16.09765625 19.5959375 16.09765625 31.8359375 16.09765625 C31.8359375 20.05765625 31.8359375 24.01765625 31.8359375 28.09765625 C19.9559375 28.09765625 8.0759375 28.09765625 -4.1640625 28.09765625 C-4.1640625 33.37765625 -4.1640625 38.65765625 -4.1640625 44.09765625 C-8.1240625 44.09765625 -12.0840625 44.09765625 -16.1640625 44.09765625 C-16.28789314 38.77751109 -16.37850926 33.45820911 -16.4387207 28.13696289 C-16.4638264 26.32789493 -16.49791845 24.51892803 -16.54125977 22.71020508 C-16.60208829 20.10602874 -16.63031059 17.50319594 -16.65234375 14.8984375 C-16.67815018 14.09304031 -16.7039566 13.28764313 -16.73054504 12.45783997 C-16.73268633 8.14635067 -16.56361332 6.59388109 -13.75854492 3.11010742 C-9.22803595 -0.40405325 -5.55085672 -0.03231752 0 0 Z " fill="#FFFFFF" transform="translate(150.1640625,70.90234375)"/>
<path d="M0 0 C5.77467819 4.08452848 8.04251644 10.77480733 11 17 C12.36282927 19.75612417 13.74418826 22.50285043 15.125 25.25 C16.0909173 27.18063589 17.05592519 29.1116722 18.01660156 31.04492188 C18.70939929 32.42226154 19.4157777 33.79281167 20.13183594 35.15820312 C20.49825195 35.86396484 20.86466797 36.56972656 21.2421875 37.296875 C21.57847168 37.93463867 21.91475586 38.57240234 22.26123047 39.22949219 C23 41 23 41 23 44 C18.71 44 14.42 44 10 44 C5.33333333 34.66666667 0.66666667 25.33333333 -4 16 C-5.50559539 17.96382007 -6.89131683 19.78263366 -8 22 C-7.2575 22.144375 -6.515 22.28875 -5.75 22.4375 C-1.58985094 24.80122106 -0.47721115 28.57661911 1 33 C1 33.66 1 34.32 1 35 C-4.28 35 -9.56 35 -15 35 C-15.66 36.98 -16.32 38.96 -17 41 C-17.66 41.99 -18.32 42.98 -19 44 C-22.0390625 44.29296875 -22.0390625 44.29296875 -25.625 44.1875 C-26.81351563 44.16042969 -28.00203125 44.13335937 -29.2265625 44.10546875 C-30.14179688 44.07066406 -31.05703125 44.03585938 -32 44 C-31.38100631 39.53137431 -29.6185052 35.89333928 -27.5625 31.9375 C-26.84059888 30.52632133 -26.11927351 29.11484803 -25.3984375 27.703125 C-25.01268555 26.95095703 -24.62693359 26.19878906 -24.22949219 25.42382812 C-22.9137325 22.82993174 -21.62989722 20.22190758 -20.3515625 17.609375 C-19.90868896 16.70840088 -19.46581543 15.80742676 -19.00952148 14.87915039 C-18.14035136 13.10951038 -17.27515846 11.33791038 -16.41430664 9.56420898 C-15.81283813 8.34713257 -15.81283813 8.34713257 -15.19921875 7.10546875 C-14.67074341 6.02495239 -14.67074341 6.02495239 -14.1315918 4.92260742 C-10.62655469 -1.03255272 -6.55638504 -1.5825757 0 0 Z " fill="#FFFFFF" transform="translate(166,15)"/>
<path d="M0 0 C15.51 0 31.02 0 47 0 C47 3.96 47 7.92 47 12 C41.39 12 35.78 12 30 12 C30 22.56 30 33.12 30 44 C26.04 44 22.08 44 18 44 C18 33.44 18 22.88 18 12 C12.06 12 6.12 12 0 12 C0 8.04 0 4.08 0 0 Z " fill="#FFFFFF" transform="translate(209,71)"/>
<path d="M0 0 C15.51 0 31.02 0 47 0 C47 3.96 47 7.92 47 12 C41.39 12 35.78 12 30 12 C30 22.56 30 33.12 30 44 C26.04 44 22.08 44 18 44 C18 33.44 18 22.88 18 12 C12.45026879 12.03957481 12.45026879 12.03957481 6.90063477 12.09008789 C4.93354026 12.09723091 2.96646379 12.05031893 1 12 C0.67 11.67 0.34 11.34 0 11 C0 7.37 0 3.74 0 0 Z " fill="#FFFFFF" transform="translate(298,15)"/>
<path d="M0 0 C10.91769093 -1.32619804 10.91769093 -1.32619804 16 0 C19.9269317 3.1365429 22.47534126 6.68002837 25 11 C28.71578561 9.52984135 30.03922773 7.62917413 32.25 4.375 C34.27852629 1.95547914 35.77740872 0.26423548 38.93164062 -0.41748047 C43.64695115 -0.79612119 48.30142506 -0.46187448 53 0 C50.94090557 3.66349923 48.66055189 6.66503052 45.8125 9.75 C45.02488281 10.63429688 44.23726563 11.51859375 43.42578125 12.4296875 C41 15 41 15 38.66796875 16.9453125 C33.60451904 21.45223891 32.53430338 25.17714374 32.09960938 31.76416016 C31.95419308 35.84936006 31.93705393 39.91243971 32 44 C28.04 44 24.08 44 20 44 C20.00902344 42.56527344 20.01804687 41.13054688 20.02734375 39.65234375 C19.99919141 37.74736845 19.9691432 35.84242051 19.9375 33.9375 C19.94845703 32.99455078 19.95941406 32.05160156 19.97070312 31.08007812 C19.84420159 25.89351506 19.43161276 22.80947184 15.66796875 19.0703125 C14.45754732 18.03243361 13.2360992 17.00716006 12 16 C9.60264762 13.38679405 7.30280127 10.69662951 5 8 C4.48824219 7.41605469 3.97648438 6.83210938 3.44921875 6.23046875 C0 2.23714789 0 2.23714789 0 0 Z " fill="#FFFFFF" transform="translate(244,15)"/>
<path d="M0 0 C4.22565029 2.02214595 6.51037741 4.88517323 8.34765625 9.15625 C9.40947102 13.09121061 9.18908742 16.50395448 7.9453125 20.37109375 C5.76423575 24.15970484 3.01848813 26.74916255 -1.0546875 28.37109375 C-6.3492274 29.05890407 -10.74499445 29.02594027 -15.5546875 26.62109375 C-19.76832863 22.82881673 -21.60580139 20.40211209 -22.109375 14.5234375 C-21.9928087 9.93572112 -20.6751121 6.22493131 -17.64453125 2.7578125 C-12.42059588 -1.6263413 -6.40233325 -1.95964953 0 0 Z " fill="#FFFFFF" transform="translate(53.0546875,9.62890625)"/>
<path d="M0 0 C3.96 0 7.92 0 12 0 C12 14.52 12 29.04 12 44 C8.04 44 4.08 44 0 44 C0 29.48 0 14.96 0 0 Z " fill="#FFFFFF" transform="translate(191,71)"/>
<path d="M0 0 C3.96 0 7.92 0 12 0 C12 14.52 12 29.04 12 44 C8.04 44 4.08 44 0 44 C0 29.48 0 14.96 0 0 Z " fill="#FFFFFF" transform="translate(351,15)"/>
<path d="M0 0 C1.2375 0.1546875 1.2375 0.1546875 2.5 0.3125 C4.5 3.3125 4.5 3.3125 4.1875 5.9375 C3.5 8.3125 3.5 8.3125 2.5 9.3125 C-0.5 9.4375 -0.5 9.4375 -3.5 9.3125 C-4.5 8.3125 -4.5 8.3125 -4.6875 5.375 C-4.45331344 1.54995285 -3.86571441 0.4832143 0 0 Z " fill="#FFFFFF" transform="translate(494.5,105.6875)"/>
</svg>
