<?xml version="1.0" standalone="no"?>
<!DOCTYPE svg PUBLIC "-//W3C//DTD SVG 20010904//EN"
 "http://www.w3.org/TR/2001/REC-SVG-20010904/DTD/svg10.dtd">
<svg version="1.0" xmlns="http://www.w3.org/2000/svg"
 width="1165.000000pt" height="858.000000pt" viewBox="0 0 1165.000000 858.000000"
 preserveAspectRatio="xMidYMid meet">

<g transform="translate(0.000000,858.000000) scale(0.100000,-0.100000)"
fill="#000000" stroke="none">
<path d="M2460 4744 c-121 -33 -229 -127 -291 -252 -29 -58 -33 -79 -37 -167
-7 -154 24 -246 119 -349 60 -65 108 -96 198 -125 109 -35 237 -24 343 30 36
18 37 18 90 -5 60 -26 137 -40 156 -28 9 6 12 27 10 63 -3 49 -5 54 -28 57
-28 3 -80 22 -80 29 0 2 14 24 30 49 42 60 60 115 67 204 15 198 -85 383 -250
464 -93 45 -227 57 -327 30z m185 -125 c100 -26 179 -89 222 -177 24 -50 28
-69 28 -147 0 -78 -4 -97 -28 -146 -41 -85 -47 -87 -109 -41 -61 46 -141 88
-207 108 -55 17 -202 19 -232 4 -32 -18 -46 -6 -51 44 -24 213 182 407 377
355z m-120 -524 c29 -9 82 -34 116 -57 59 -38 62 -41 44 -54 -34 -25 -161 -21
-224 7 -49 21 -134 97 -125 111 9 14 133 9 189 -7z"/>
<path d="M3121 4732 c-7 -14 -11 -158 -11 -445 0 -351 2 -427 14 -436 10 -8
76 -11 227 -9 198 3 218 5 264 26 64 29 91 55 122 116 55 109 38 234 -43 305
-24 21 -44 43 -44 48 0 6 10 18 21 29 31 27 49 76 49 131 0 73 -18 121 -61
168 -63 68 -101 77 -331 83 -190 4 -197 3 -207 -16z m373 -122 c85 -19 122
-110 74 -179 -32 -47 -74 -59 -205 -60 l-113 -1 0 125 0 125 103 0 c56 0 120
-5 141 -10z m90 -392 c57 -50 70 -142 27 -194 -37 -46 -71 -54 -221 -54 l-140
0 0 140 0 140 148 0 149 0 37 -32z"/>
<path d="M3835 4738 c-3 -7 -4 -211 -3 -453 l3 -440 285 0 285 0 0 60 0 60
-218 3 -218 2 3 131 3 130 195 2 195 2 0 59 0 58 -195 2 -195 1 -3 132 -3 133
218 2 218 3 0 60 0 60 -283 3 c-221 2 -284 0 -287 -10z"/>
<path d="M4875 4738 c-3 -7 -4 -211 -3 -453 l3 -440 40 0 40 0 3 212 2 213
178 2 177 3 3 38 3 37 -180 0 -181 0 0 160 0 160 229 0 c146 0 232 4 236 10 4
6 4 24 0 40 l-7 30 -269 0 c-206 0 -271 -3 -274 -12z"/>
<path d="M7953 4744 c-10 -4 -13 -45 -13 -154 l0 -148 -72 25 c-123 43 -237
20 -331 -66 -62 -58 -89 -124 -95 -235 -6 -124 15 -192 83 -261 58 -60 115
-81 210 -79 68 2 138 30 175 70 32 33 38 30 42 -13 3 -35 6 -38 36 -41 l32 -3
-2 453 -3 453 -25 2 c-14 1 -31 -1 -37 -3z m-71 -358 c59 -28 60 -32 59 -183
-1 -126 -4 -143 -27 -191 -32 -66 -84 -103 -154 -110 -71 -7 -116 5 -156 40
-124 109 -107 352 29 437 67 41 172 44 249 7z"/>
<path d="M1559 4699 c17 -17 31 -38 31 -45 0 -8 5 -14 10 -14 6 0 10 -11 10
-25 0 -22 15 -60 30 -75 3 -3 12 -18 20 -35 8 -16 17 -32 20 -35 3 -3 12 -18
20 -35 8 -16 17 -32 20 -35 3 -3 11 -15 18 -27 6 -13 18 -33 25 -45 6 -13 14
-25 17 -28 12 -12 30 -51 30 -65 0 -8 5 -15 10 -15 6 0 10 -17 10 -38 0 -28
-8 -47 -28 -70 -28 -32 -30 -32 -123 -32 l-94 -1 35 -29 c19 -17 45 -30 57
-30 13 0 23 -4 23 -10 0 -5 23 -10 50 -10 28 0 50 5 50 10 0 6 9 10 20 10 27
0 90 63 90 90 0 11 5 20 10 20 6 0 10 27 10 60 0 33 -4 60 -10 60 -5 0 -10 12
-10 26 0 14 -4 23 -10 19 -5 -3 -10 3 -10 14 0 12 -4 21 -10 21 -5 0 -10 7
-10 15 0 8 -4 15 -10 15 -5 0 -10 9 -10 20 0 11 -4 20 -10 20 -5 0 -10 7 -10
15 0 8 -4 15 -10 15 -5 0 -10 10 -10 21 0 17 -3 19 -14 10 -11 -9 -12 -6 -8
14 2 15 0 25 -7 25 -6 0 -11 9 -11 20 0 11 -4 20 -10 20 -5 0 -10 7 -10 15 0
8 -4 15 -10 15 -5 0 -10 9 -10 20 0 11 -4 20 -10 20 -5 0 -10 6 -10 14 0 19
-49 76 -65 76 -7 0 -15 4 -17 9 -1 4 -25 11 -51 15 l-49 7 31 -32z m56 -9 c3
-5 -1 -10 -10 -10 -9 0 -13 5 -10 10 3 6 8 10 10 10 2 0 7 -4 10 -10z m54 -44
c0 -7 -2 -6 -6 2 -2 6 -11 12 -19 12 -9 0 -12 5 -9 10 8 13 35 -6 34 -24z m36
-76 c6 -9 2 -9 -12 -1 -15 8 -19 17 -15 38 l5 28 8 -27 c4 -14 10 -32 14 -38z
m15 -80 c-19 -13 -30 -13 -30 0 0 6 10 10 23 10 18 0 19 -2 7 -10z m14 -35
c-4 -8 -11 -15 -16 -15 -6 0 -5 6 2 15 7 8 14 15 16 15 2 0 1 -7 -2 -15z m63
-29 c0 -10 -6 -10 -24 -2 -30 14 -30 24 0 19 13 -3 24 -10 24 -17z m-23 -31
c-6 -16 -24 -21 -24 -7 0 11 11 22 21 22 5 0 6 -7 3 -15z m7 -42 c-10 -17 -10
-16 -11 3 0 23 13 41 18 25 2 -6 -1 -18 -7 -28z m34 27 c-3 -5 -1 -19 5 -30 6
-11 8 -20 6 -20 -10 0 -27 41 -21 50 3 6 8 10 11 10 3 0 2 -4 -1 -10z m31 -82
c4 -7 3 -8 -4 -4 -7 4 -12 2 -12 -5 0 -7 -3 -10 -6 -6 -6 5 3 27 11 27 2 0 7
-5 11 -12z m36 -50 c-7 -7 -12 -8 -12 -2 0 14 12 26 19 19 2 -3 -1 -11 -7 -17z
m-8 -40 c-3 -4 -9 -8 -15 -8 -5 0 -9 4 -9 8 0 5 7 9 15 9 8 0 12 -4 9 -9z m33
-20 c-4 -35 -27 -52 -27 -19 0 12 5 21 10 21 6 0 10 7 10 15 0 8 2 15 6 15 3
0 3 -14 1 -32z m-22 -56 c-3 -3 -11 0 -18 7 -9 10 -8 11 6 5 10 -3 15 -9 12
-12z m-4 -20 c-7 -2 -18 1 -23 6 -8 8 -4 9 13 5 13 -4 18 -8 10 -11z m-204
-68 c-3 -3 -12 -4 -19 -1 -8 3 -5 6 6 6 11 1 17 -2 13 -5z m133 2 c0 -2 -6 -9
-13 -15 -10 -8 -14 -7 -14 4 0 8 6 15 14 15 7 0 13 -2 13 -4z m-66 -15 c4 -5
-3 -7 -14 -4 -23 6 -26 13 -6 13 8 0 17 -4 20 -9z"/>
<path d="M1280 4710 c0 -5 -5 -10 -10 -10 -17 0 -60 -47 -60 -65 0 -8 -4 -15
-9 -15 -5 0 -11 -8 -14 -17 -6 -19 -38 -75 -48 -83 -3 -3 -12 -20 -20 -37 -8
-18 -17 -33 -21 -33 -5 0 -8 -7 -8 -15 0 -8 -5 -15 -11 -15 -7 0 -9 -10 -7
-24 3 -16 1 -23 -7 -20 -7 3 -15 -3 -18 -13 -8 -24 -40 -77 -49 -81 -12 -5 -9
-174 2 -192 8 -12 10 -9 10 13 0 15 5 27 10 27 6 0 10 8 10 19 0 10 18 37 40
60 22 22 40 48 40 56 0 8 5 15 10 15 6 0 10 7 10 15 0 8 5 15 10 15 6 0 10 9
10 20 0 11 5 20 10 20 6 0 10 7 10 15 0 8 5 15 10 15 6 0 10 9 10 20 0 11 5
20 11 20 7 0 9 10 7 24 -3 16 -1 23 7 19 7 -2 19 9 26 26 8 17 17 31 21 31 5
0 8 7 8 16 0 9 20 36 44 60 35 36 50 44 80 44 20 0 36 -3 36 -8 0 -4 10 -12
22 -17 12 -6 31 -28 43 -50 11 -22 23 -41 28 -43 4 -2 7 -12 7 -22 0 -10 5
-22 10 -25 6 -4 10 23 10 74 0 47 -4 81 -10 81 -5 0 -10 5 -10 11 0 14 -29 43
-36 36 -3 -3 -1 -14 5 -25 6 -11 7 -22 4 -26 -3 -3 -1 -6 5 -6 6 0 10 -9 9
-19 -1 -22 -17 -18 -17 4 0 7 -6 16 -12 18 -10 4 -10 6 0 6 9 1 10 6 2 20 -5
11 -7 27 -4 35 4 11 1 16 -10 16 -9 0 -16 5 -16 10 0 6 -37 10 -90 10 -53 0
-90 -4 -90 -10z m72 -17 c-6 -3 -10 -9 -7 -14 4 -5 -1 -6 -9 -3 -23 9 -19 20
7 21 12 0 16 -1 9 -4z m103 -3 c3 -5 1 -10 -4 -10 -6 0 -11 5 -11 10 0 6 2 10
4 10 3 0 8 -4 11 -10z m-125 -35 c7 -9 8 -15 2 -15 -5 0 -12 7 -16 15 -3 8 -4
15 -2 15 2 0 9 -7 16 -15z m-27 -19 c4 -10 0 -14 -13 -13 -14 1 -16 4 -8 14
13 16 15 16 21 -1z m-27 -42 c-9 -8 -20 -12 -26 -9 -18 11 -11 21 16 23 23 2
24 0 10 -14z m-47 -31 c-8 -9 -16 -10 -22 -4 -13 13 0 31 19 24 11 -4 12 -8 3
-20z m-53 -50 c-10 -10 -19 5 -10 18 6 11 8 11 12 0 2 -7 1 -15 -2 -18z m35
-24 c-14 -11 -33 -18 -43 -16 -13 4 -18 0 -18 -14 0 -10 -2 -19 -4 -19 -2 0
-13 -3 -23 -6 -17 -5 -17 -5 0 6 9 6 15 15 12 19 -8 13 23 34 40 27 8 -3 14
-2 14 2 -3 17 2 22 24 22 l22 -1 -24 -20z m-21 -49 c0 -5 -2 -10 -4 -10 -3 0
-8 5 -11 10 -3 6 -1 10 4 10 6 0 11 -4 11 -10z m-46 -22 c-5 -8 -2 -9 9 -5 21
8 22 -6 3 -22 -11 -9 -15 -7 -19 8 -3 11 -2 22 1 25 10 10 13 6 6 -6z m-14
-38 c21 -21 19 -23 -17 -14 -13 4 -23 13 -23 20 0 20 17 17 40 -6z m-10 -54
c9 -4 6 -5 -6 -2 -12 2 -28 0 -35 -5 -20 -12 -30 0 -17 21 10 16 15 17 28 6 8
-7 22 -16 30 -20z m-70 -26 c0 -5 -4 -10 -10 -10 -5 0 -10 5 -10 10 0 6 5 10
10 10 6 0 10 -4 10 -10z m15 -58 c-3 -3 -11 0 -18 7 -9 10 -8 11 6 5 10 -3 15
-9 12 -12z m-44 -49 c-10 -17 -10 -16 -11 3 0 23 13 41 18 25 2 -6 -1 -18 -7
-28z"/>
<path d="M9223 4693 c-8 -3 -13 -22 -13 -49 0 -38 3 -44 25 -50 14 -3 36 -3
50 0 21 5 25 12 25 46 0 21 -6 42 -12 47 -15 9 -57 12 -75 6z"/>
<path d="M8823 4673 c-9 -3 -13 -33 -13 -103 l0 -99 -57 -3 c-57 -3 -58 -3
-58 -33 0 -30 1 -30 58 -33 l57 -3 0 -202 c0 -213 7 -265 37 -306 38 -50 69
-65 135 -65 66 1 109 16 141 52 16 17 16 23 5 41 -15 25 -35 27 -60 5 -10 -10
-40 -19 -67 -22 -96 -9 -113 38 -109 305 l3 188 98 3 97 3 0 34 0 34 -97 3
-98 3 -3 98 c-1 53 -6 98 -10 98 -25 5 -49 5 -59 2z"/>
<path d="M1350 4556 c-11 -29 -3 -62 22 -98 10 -14 18 -31 18 -37 0 -6 3 -11
8 -11 4 0 18 -24 32 -54 l25 -55 67 -3 c38 -2 68 0 68 5 0 4 -4 7 -10 7 -5 0
-10 7 -10 15 0 8 -4 15 -10 15 -5 0 -10 8 -10 18 -1 15 -2 15 -16 -3 -16 -20
-16 -20 -9 3 6 22 -13 82 -27 82 -5 0 -8 9 -8 20 0 11 -4 20 -10 20 -5 0 -10
7 -10 16 0 8 -4 12 -10 9 -5 -3 -10 1 -10 10 0 57 -81 91 -100 41z m44 -25 c3
-5 -1 -11 -9 -14 -9 -4 -12 -1 -8 9 6 16 10 17 17 5z m40 -60 c13 -11 16 -11
16 0 0 7 7 3 16 -9 9 -13 14 -24 13 -25 -2 -1 -15 -8 -29 -16 -20 -10 -22 -11
-12 0 16 18 15 29 -4 29 -8 0 -12 5 -9 10 3 6 -3 10 -14 10 -12 0 -21 4 -21 9
0 13 25 8 44 -8z m69 -81 c6 -8 8 -11 3 -7 -6 4 -16 -3 -24 -15 -7 -13 -11
-15 -8 -6 3 10 1 20 -4 23 -6 4 -10 10 -10 15 0 13 28 6 43 -10z m-49 -6 c3
-8 2 -12 -4 -9 -6 3 -10 10 -10 16 0 14 7 11 14 -7z m82 -62 c-10 -2 -22 0
-28 6 -6 6 0 7 19 4 21 -5 23 -7 9 -10z"/>
<path d="M5610 4468 c-90 -30 -168 -108 -196 -193 -67 -209 44 -408 250 -446
140 -26 281 44 345 172 52 104 51 210 -4 319 -69 135 -243 200 -395 148z m205
-73 c40 -18 97 -72 122 -118 13 -23 18 -55 18 -117 0 -96 -18 -140 -77 -197
-111 -107 -298 -75 -368 63 -21 40 -25 62 -25 133 0 97 12 127 71 186 68 69
168 88 259 50z"/>
<path d="M7005 4466 c-36 -15 -73 -40 -92 -62 -18 -21 -34 -33 -34 -28 -1 5
-2 14 -4 19 -1 6 -3 25 -3 43 -2 32 -3 33 -39 30 -21 -2 -37 -6 -35 -10 1 -5
2 -145 2 -313 l0 -305 35 0 c44 0 44 -2 47 230 3 158 6 190 22 220 44 83 105
121 193 121 88 0 142 -43 162 -132 6 -24 11 -133 11 -242 l0 -198 38 3 37 3 0
225 c0 244 -7 287 -52 340 -63 75 -184 99 -288 56z"/>
<path d="M8280 4476 c-67 -19 -130 -54 -130 -73 0 -9 7 -24 15 -33 14 -16 19
-15 72 12 48 24 68 28 137 28 117 0 159 -30 177 -124 4 -22 5 -44 3 -50 -3 -7
-46 -10 -125 -8 -137 4 -191 -7 -245 -51 -88 -73 -100 -206 -25 -291 59 -67
206 -82 301 -30 29 16 58 37 64 46 19 31 36 21 36 -22 0 -39 1 -40 35 -40 l35
0 0 243 c0 270 -6 296 -69 350 -62 52 -182 70 -281 43z m272 -328 c16 -24 -2
-120 -30 -161 -56 -83 -172 -118 -256 -77 -118 57 -96 203 36 246 55 18 236
13 250 -8z"/>
<path d="M9624 4475 c-95 -30 -161 -87 -203 -175 -22 -47 -26 -69 -25 -145 0
-116 24 -175 100 -244 66 -61 133 -85 229 -85 58 1 82 6 137 33 72 34 110 72
149 149 31 62 39 188 14 261 -54 162 -239 257 -401 206z m194 -85 c101 -53
150 -144 140 -258 -17 -180 -185 -282 -344 -208 -88 41 -134 122 -134 236 0
109 54 196 145 236 47 21 149 18 193 -6z"/>
<path d="M10350 4470 c-35 -12 -67 -32 -89 -55 -37 -41 -48 -37 -53 15 -3 33
-5 35 -38 35 l-35 0 -3 -290 c-1 -159 0 -300 3 -312 4 -18 12 -23 39 -23 l34
0 4 198 c5 218 12 249 71 310 87 91 242 85 295 -11 14 -27 18 -69 22 -262 l5
-230 38 -3 38 -3 -3 249 -3 249 -30 48 c-56 91 -178 126 -295 85z"/>
<path d="M6130 4263 c2 -234 10 -290 49 -348 41 -61 99 -88 185 -88 86 1 152
28 195 80 31 37 44 32 41 -15 -4 -48 -1 -52 35 -52 28 0 36 5 40 23 3 12 4
153 3 312 l-3 290 -42 3 -43 3 0 -198 c0 -178 -3 -203 -21 -243 -39 -86 -103
-130 -189 -130 -86 0 -140 44 -156 125 -4 22 -8 130 -8 240 l-1 200 -43 3 -43
3 1 -208z"/>
<path d="M9220 4155 l0 -316 38 3 37 3 0 310 0 310 -37 3 -38 3 0 -316z"/>
<path d="M1356 4348 c-4 -9 -4 -22 0 -29 4 -8 3 -9 -5 -5 -6 4 -14 0 -18 -11
-4 -10 -9 -20 -12 -23 -10 -8 -42 -64 -48 -82 -3 -10 -8 -18 -12 -18 -4 0 -13
-16 -21 -35 -8 -19 -18 -35 -22 -35 -5 0 -8 -19 -6 -42 3 -40 5 -43 36 -46 38
-4 67 19 59 48 -3 13 -1 17 9 13 8 -3 14 1 14 11 0 9 5 16 10 16 6 0 10 9 10
20 0 11 5 20 10 20 6 0 10 7 10 15 0 8 5 15 10 15 6 0 10 9 10 20 0 11 5 20
10 20 6 0 10 16 10 35 0 19 -4 35 -10 35 -5 0 -10 9 -10 20 0 11 -4 20 -9 20
-5 0 -11 8 -14 18 -4 16 -4 16 -11 0z m7 -68 c-3 -11 -12 -20 -19 -20 -11 0
-10 5 3 20 10 11 18 20 19 20 1 0 0 -9 -3 -20z m-28 -49 c-3 -6 -11 -11 -16
-11 -5 0 -4 6 3 14 14 16 24 13 13 -3z m60 1 c-3 -3 -11 0 -18 7 -9 10 -8 11
6 5 10 -3 15 -9 12 -12z m-30 -31 c-3 -6 -11 -8 -17 -5 -6 4 -5 9 3 15 16 10
23 4 14 -10z m-49 -73 c-1 -12 -10 -22 -19 -24 -26 -4 -32 17 -7 23 13 3 19
11 16 20 -3 8 -1 11 4 8 5 -3 8 -16 6 -27z"/>
<path d="M1460 4205 c-8 -19 -17 -35 -22 -35 -4 0 -8 -7 -8 -15 0 -13 23 -15
168 -13 l167 3 3 36 c4 50 -21 59 -172 59 l-122 0 -14 -35z m91 -2 c12 3 19 0
19 -9 0 -7 -6 -12 -12 -10 -7 3 -25 7 -40 10 -16 4 -28 11 -28 17 0 6 7 6 21
-2 12 -6 30 -9 40 -6z m76 3 c-6 -16 16 -40 26 -29 4 3 7 1 7 -5 0 -6 -12 -10
-27 -10 -24 1 -28 5 -28 29 0 18 5 29 14 29 7 0 11 -6 8 -14z m77 -27 c-3 -5
-10 -7 -15 -3 -5 3 -7 10 -3 15 3 5 10 7 15 3 5 -3 7 -10 3 -15z m40 -18 c-8
-9 -22 12 -17 26 6 15 7 14 13 -3 4 -10 6 -21 4 -23z m-194 9 c0 -5 -10 -10
-22 -9 -22 0 -22 1 -3 9 11 5 21 9 23 9 1 1 2 -3 2 -9z"/>
<path d="M1160 4210 c0 -5 -5 -10 -10 -10 -13 0 -50 -38 -67 -68 -15 -26 -18
-162 -3 -162 6 0 10 -7 10 -17 0 -21 58 -73 82 -73 10 0 18 -4 18 -10 0 -6 97
-10 270 -10 173 0 270 4 270 10 0 6 7 10 15 10 14 0 85 62 85 75 0 3 -7 5 -15
5 -8 0 -15 -4 -15 -10 0 -5 -25 -10 -55 -10 -30 0 -55 5 -55 10 0 6 -85 10
-234 10 l-233 0 -37 33 c-32 29 -36 39 -36 80 0 26 4 47 8 47 5 0 14 16 22 35
8 19 17 35 22 35 4 0 8 7 8 15 0 9 -9 15 -25 15 -14 0 -25 -4 -25 -10z m-37
-103 c3 -8 -3 -13 -14 -13 -19 0 -24 8 -12 19 10 11 20 8 26 -6z m-6 -44 c-4
-3 -2 -12 4 -19 6 -8 6 -14 0 -18 -5 -4 -13 -2 -16 4 -8 12 1 40 11 40 4 0 4
-3 1 -7z m55 -115 c-9 -9 -12 -7 -12 12 0 19 3 21 12 12 9 -9 9 -15 0 -24z
m-22 -18 c0 -5 -5 -10 -11 -10 -5 0 -7 5 -4 10 3 6 8 10 11 10 2 0 4 -4 4 -10z
m70 0 c0 -5 -2 -10 -4 -10 -3 0 -8 5 -11 10 -3 6 -1 10 4 10 6 0 11 -4 11 -10z
m203 -5 c8 -18 -6 -27 -28 -19 -10 4 -21 1 -26 -7 -7 -11 -9 -10 -9 4 0 14 -5
17 -19 12 -11 -3 -22 -2 -25 3 -3 5 11 8 30 7 19 0 40 3 47 7 18 11 24 10 30
-7z m73 6 c-3 -5 1 -11 9 -15 17 -6 21 -36 4 -36 -5 0 -8 4 -4 9 6 11 -35 42
-47 35 -4 -3 -8 0 -8 5 0 6 12 11 26 11 14 0 23 -4 20 -9z m84 -12 c0 -11 -5
-17 -10 -14 -6 4 -7 11 -4 17 4 6 2 8 -4 4 -6 -3 -13 -2 -17 4 -3 5 3 10 14
10 15 0 21 -6 21 -21z m90 -4 c0 -7 6 -16 13 -18 7 -4 6 -6 -4 -6 -10 -1 -19
9 -21 24 -3 13 -1 22 3 19 5 -3 9 -11 9 -19z m-377 -15 c3 6 5 6 3 -1 -1 -7
-15 -14 -30 -16 -24 -3 -26 -2 -14 11 8 9 17 11 25 5 7 -6 13 -6 16 1z m163 1
c-4 -5 0 -12 6 -14 8 -3 6 -6 -4 -6 -18 -1 -24 10 -11 22 9 10 15 8 9 -2z
m259 0 c3 -5 2 -12 -3 -15 -5 -3 -9 1 -9 9 0 17 3 19 12 6z"/>
</g>
</svg>
