<svg xmlns:xlink="http://www.w3.org/1999/xlink"  width="210" height="33" viewBox="0 0 210 33" fill="none" xmlns="http://www.w3.org/2000/svg">
<path d="M113.647 17.6579C113.647 18.8553 112.872 19.6689 111.851 19.6689C111.207 19.6689 110.762 19.3311 110.501 18.8552V21.1806H109.84V15.7231H110.501V16.4683C110.762 15.9921 111.207 15.6545 111.851 15.6545C112.872 15.6545 113.647 16.4684 113.647 17.6579ZM112.98 17.6657C112.98 16.7829 112.465 16.2535 111.736 16.2535C111.007 16.2535 110.485 16.7829 110.485 17.6657C110.485 18.5486 111.007 19.0703 111.736 19.0703C112.466 19.0703 112.98 18.5482 112.98 17.6657Z" fill="#726E75"/>
<path d="M117.778 17.1817V19.5994H117.141V19.2156C116.903 19.5151 116.489 19.6758 115.929 19.6758C115.092 19.6758 114.378 19.2538 114.378 18.4783C114.378 17.7189 115.1 17.2887 115.944 17.2887C116.481 17.2887 116.88 17.4425 117.118 17.7108V17.2427C117.118 16.5212 116.619 16.2452 116.044 16.2452C115.575 16.2452 115.214 16.4523 115.03 16.7906L114.547 16.4292C114.838 15.9155 115.398 15.6544 116.051 15.6544C116.941 15.6544 117.777 16.1074 117.777 17.1813L117.778 17.1817ZM117.134 18.4785C117.134 18.0414 116.688 17.8034 116.105 17.8034C115.523 17.8034 115.061 18.026 115.061 18.4785C115.061 18.931 115.522 19.1542 116.105 19.1542C116.689 19.1542 117.134 18.9162 117.134 18.4785Z" fill="#726E75"/>
<path d="M120.865 15.6547V16.3528H120.496C119.944 16.3528 119.552 16.813 119.552 17.5193V19.5996H118.892V15.7233H119.552V16.3911C119.775 15.8999 120.166 15.6545 120.634 15.6545H120.865L120.865 15.6547Z" fill="#726E75"/>
<path d="M123.636 16.2839H122.723V18.4023C122.723 18.794 122.877 19.0161 123.237 19.0161H123.637V19.5994H123.176C122.432 19.5994 122.064 19.1233 122.064 18.4562V16.2836H121.342V15.7231H122.064V14.879L122.724 14.4492V15.7231H123.637V16.2836L123.636 16.2839H123.636Z" fill="#726E75"/>
<path d="M126.179 17.6579C126.179 16.4683 127.015 15.6548 128.128 15.6548C129.249 15.6548 130.077 16.4685 130.077 17.6579C130.077 18.8554 129.249 19.6762 128.128 19.6762C127.015 19.6762 126.179 18.8554 126.179 17.6579ZM129.41 17.6579C129.41 16.783 128.865 16.2533 128.128 16.2533C127.399 16.2533 126.854 16.7828 126.854 17.6579C126.854 18.548 127.399 19.0775 128.128 19.0775C128.865 19.0775 129.41 18.548 129.41 17.6579Z" fill="#726E75"/>
<path d="M132.442 14.365C132.074 14.365 131.92 14.5799 131.92 14.9637V15.7232H132.834V16.2836H131.92V19.5995H131.26V16.2836H130.616V15.7232H131.26V14.9254C131.26 14.2576 131.636 13.7816 132.373 13.7816H132.834V14.365H132.442Z" fill="#726E75"/>
<path d="M207.288 19.6312C208.269 19.6312 209 19.0202 209 17.9793V15.6565H208.019V17.9193C208.019 18.4998 207.718 18.7642 207.288 18.7642C206.866 18.7642 206.556 18.5002 206.556 17.9193V15.6565H205.576V17.9793C205.576 19.0202 206.315 19.6312 207.288 19.6312ZM203.217 18.9222C202.742 18.9222 202.418 18.7411 202.418 18.4095C202.418 18.0779 202.742 17.8892 203.217 17.8892C203.693 17.8892 204.017 18.0777 204.017 18.4095C204.017 18.7412 203.693 18.9222 203.217 18.9222ZM203.225 15.5656C202.456 15.5656 201.777 15.8899 201.513 16.712L202.32 17.0513C202.463 16.6589 202.758 16.4326 203.188 16.4326C203.693 16.4326 203.995 16.6739 203.995 17.1944V17.5486C203.769 17.3374 203.429 17.2094 202.984 17.2094C202.034 17.2094 201.415 17.6846 201.415 18.4162C201.415 19.178 202.011 19.6308 202.916 19.6308C203.429 19.6308 203.829 19.4724 204.063 19.1631V19.5401H204.968V17.0965C204.968 16.0481 204.161 15.5654 203.226 15.5654M200.371 19.6312C200.748 19.6312 201.012 19.352 201.012 18.975C201.012 18.5903 200.748 18.3188 200.371 18.3188C199.987 18.3188 199.723 18.5905 199.723 18.975C199.723 19.352 199.987 19.6312 200.371 19.6312ZM197.792 15.5656C197.302 15.5656 196.895 15.7541 196.661 16.2066C196.442 15.7992 196.035 15.5656 195.552 15.5656C195.13 15.5656 194.768 15.7391 194.549 16.1388V15.6561H193.576V19.5405H194.549V17.2022C194.549 16.6968 194.851 16.4105 195.266 16.4105C195.613 16.4105 195.869 16.6822 195.869 17.1722V19.5405H196.842V17.2022C196.842 16.6968 197.144 16.4105 197.559 16.4105C197.906 16.4105 198.162 16.6822 198.162 17.1722V19.5405H199.135V16.976C199.135 16.1238 198.562 15.5656 197.792 15.5656ZM191.061 18.7713C190.488 18.7713 190.058 18.3411 190.058 17.5948C190.058 16.8558 190.488 16.4334 191.061 16.4334C191.642 16.4334 192.08 16.8558 192.08 17.5948C192.08 18.3415 191.642 18.7713 191.061 18.7713ZM191.061 19.6312C192.223 19.6312 193.075 18.8013 193.075 17.5946C193.075 16.3955 192.223 15.5658 191.061 15.5658C189.915 15.5658 189.062 16.3957 189.062 17.5946C189.062 18.8015 189.915 19.6312 191.061 19.6312ZM186.972 19.6312C187.832 19.6312 188.57 19.2011 188.827 18.2508L187.967 17.9416C187.779 18.5375 187.462 18.7638 186.971 18.7638C186.481 18.7638 186.029 18.3791 186.029 17.5946C186.029 16.8102 186.481 16.4255 186.971 16.4255C187.462 16.4255 187.779 16.6594 187.967 17.2554L188.827 16.9461C188.571 15.9959 187.831 15.5658 186.972 15.5658C185.871 15.5658 185.026 16.3806 185.026 17.5946C185.026 18.8086 185.871 19.6312 186.972 19.6312ZM184.119 19.6312C184.496 19.6312 184.76 19.352 184.76 18.975C184.76 18.5903 184.496 18.3188 184.119 18.3188C183.734 18.3188 183.47 18.5905 183.47 18.975C183.47 19.352 183.734 19.6312 184.119 19.6312ZM181.298 16.35C181.728 16.35 182.037 16.599 182.143 17.1495H180.416C180.521 16.614 180.823 16.35 181.298 16.35ZM183.131 17.5871C183.131 16.3803 182.377 15.5658 181.299 15.5658C180.182 15.5658 179.398 16.388 179.398 17.5946C179.398 18.8165 180.197 19.6312 181.344 19.6312C182.135 19.6312 182.822 19.2388 183.124 18.3641L182.302 18.0625C182.098 18.5903 181.766 18.8015 181.306 18.8015C180.808 18.8015 180.446 18.5 180.386 17.8136H183.124C183.132 17.7454 183.132 17.6551 183.132 17.5873M179.222 15.6563H178.355V14.3741L177.382 14.9096V15.6563H176.673V16.433H177.382V18.1904C177.382 19.0202 177.857 19.5407 178.687 19.5407H179.222V18.7035H178.807C178.506 18.7035 178.355 18.515 178.355 18.1453V16.433H179.222V15.6563H179.222ZM174.661 18.9222C174.186 18.9222 173.862 18.7411 173.862 18.4095C173.862 18.0779 174.186 17.8892 174.661 17.8892C175.136 17.8892 175.461 18.0777 175.461 18.4095C175.461 18.7412 175.136 18.9222 174.661 18.9222ZM174.669 15.5656C173.899 15.5656 173.221 15.8899 172.957 16.712L173.764 17.0513C173.907 16.6589 174.201 16.4326 174.631 16.4326C175.137 16.4326 175.439 16.6739 175.439 17.1944V17.5486C175.212 17.3374 174.873 17.2094 174.428 17.2094C173.478 17.2094 172.859 17.6846 172.859 18.4162C172.859 19.178 173.455 19.6308 174.36 19.6308C174.873 19.6308 175.273 19.4724 175.507 19.1631V19.5401H176.412V17.0965C176.412 16.0481 175.605 15.5654 174.669 15.5654M172.59 15.6563H171.722V14.3741L170.749 14.9096V15.6563H170.04V16.433H170.749V18.1904C170.749 19.0202 171.224 19.5407 172.054 19.5407H172.59V18.7035H172.175C171.873 18.7035 171.722 18.515 171.722 18.1453V16.433H172.59V15.6563ZM168.204 19.6312C169.193 19.6312 169.841 19.1408 169.841 18.4243C169.841 17.8361 169.434 17.4437 168.612 17.2479L168.235 17.1499C167.774 17.0368 167.488 16.9537 167.488 16.7047C167.488 16.5085 167.737 16.3577 168.121 16.3577C168.559 16.3577 168.913 16.5539 168.996 17.0289L169.804 16.8177C169.698 16.0406 169.027 15.5656 168.122 15.5656C167.179 15.5656 166.568 16.0331 166.568 16.727C166.568 17.338 166.945 17.715 167.842 17.9339L168.227 18.0244C168.702 18.1451 168.913 18.2433 168.913 18.4696C168.913 18.7035 168.642 18.8466 168.204 18.8466C167.714 18.8466 167.322 18.5976 167.209 18.0849L166.424 18.3415C166.635 19.2315 167.374 19.6312 168.204 19.6312ZM164.311 16.35C164.741 16.35 165.05 16.599 165.156 17.1495H163.429C163.534 16.614 163.836 16.35 164.311 16.35ZM166.144 17.5871C166.144 16.3803 165.39 15.5658 164.311 15.5658C163.195 15.5658 162.411 16.388 162.411 17.5946C162.411 18.8165 163.21 19.6312 164.356 19.6312C165.149 19.6312 165.835 19.2388 166.137 18.3641L165.314 18.0625C165.111 18.5903 164.779 18.8015 164.319 18.8015C163.821 18.8015 163.459 18.5 163.399 17.8136H166.137C166.144 17.7454 166.144 17.6551 166.144 17.5873M162.273 19.5407V18.7035H161.987C161.753 18.7035 161.647 18.5755 161.647 18.3342V14.2613H160.674V18.3945C160.674 19.1034 161.082 19.5409 161.798 19.5409H162.273V19.5407ZM158.279 18.9222C157.804 18.9222 157.48 18.7411 157.48 18.4095C157.48 18.0779 157.804 17.8892 158.279 17.8892C158.754 17.8892 159.079 18.0777 159.079 18.4095C159.079 18.7412 158.754 18.9222 158.279 18.9222ZM158.286 15.5656C157.517 15.5656 156.838 15.8899 156.574 16.712L157.381 17.0513C157.524 16.6589 157.819 16.4326 158.249 16.4326C158.754 16.4326 159.056 16.6739 159.056 17.1944V17.5486C158.83 17.3374 158.49 17.2094 158.045 17.2094C157.095 17.2094 156.476 17.6846 156.476 18.4162C156.476 19.178 157.072 19.6308 157.977 19.6308C158.49 19.6308 158.89 19.4724 159.124 19.1631V19.5401H160.029V17.0965C160.029 16.0481 159.221 15.5654 158.286 15.5654M154.343 16.35C154.773 16.35 155.082 16.599 155.188 17.1495H153.46C153.566 16.614 153.867 16.35 154.343 16.35ZM156.176 17.5871C156.176 16.3803 155.421 15.5658 154.343 15.5658C153.227 15.5658 152.442 16.388 152.442 17.5946C152.442 18.8165 153.242 19.6312 154.388 19.6312C155.18 19.6312 155.867 19.2388 156.168 18.3641L155.346 18.0625C155.143 18.5903 154.811 18.8015 154.35 18.8015C153.853 18.8015 153.491 18.5 153.43 17.8136H156.168C156.176 17.7454 156.176 17.6551 156.176 17.5873M152.074 15.5656C151.666 15.5656 151.312 15.7618 151.093 16.2143V15.6561H150.12V19.5405H151.093V17.504C151.093 16.9308 151.417 16.6065 151.87 16.6065H152.277V15.5656H152.074Z" fill="#2E2C30"/>
<path d="M135.212 16.7952C135.193 20.1441 137.893 22.8727 141.241 22.8896C144.589 22.9088 147.317 20.208 147.335 16.859C147.352 13.5124 144.654 10.7838 141.305 10.7665H141.271C137.94 10.7665 135.229 13.4587 135.212 16.7948V16.7952Z" fill="#E4002B"/>
<path d="M143.394 20.3616H139.155C138.82 20.3616 138.547 20.089 138.547 19.7539V17.2617H138.039C137.793 17.2617 137.572 17.1146 137.478 16.8871C137.383 16.6599 137.435 16.3999 137.608 16.2251L140.844 12.9743C140.956 12.8606 141.114 12.7954 141.274 12.7954C141.435 12.7954 141.592 12.8606 141.705 12.9747L144.94 16.2251C145.114 16.4003 145.165 16.6599 145.071 16.8871C144.976 17.1146 144.756 17.2617 144.51 17.2617H144.002V19.7539C144.002 20.089 143.729 20.3616 143.394 20.3616H143.394ZM141.274 13.3221C141.252 13.3221 141.232 13.3303 141.217 13.3457L137.982 16.5965C137.959 16.6197 137.952 16.6543 137.964 16.6847C137.977 16.7151 138.006 16.7348 138.039 16.7348H138.81C138.955 16.7348 139.073 16.8527 139.073 16.9981V19.7535C139.073 19.7982 139.11 19.8346 139.154 19.8346H143.393C143.438 19.8346 143.475 19.7982 143.475 19.7535V16.9981C143.475 16.8527 143.592 16.7348 143.738 16.7348H144.509C144.542 16.7348 144.571 16.7149 144.584 16.6847C144.597 16.6543 144.59 16.6195 144.566 16.5963L141.331 13.3459C141.316 13.3303 141.295 13.3219 141.273 13.3219L141.274 13.3222L141.274 13.3221Z" fill="white"/>
<path d="M43.7263 4.99994H45.4905V14.595H43.6167V7.98858L40.9979 11.5923H40.6763L38.0217 7.98858V14.595H36.1742V4.99994H37.9383L40.8646 9.03079L43.7263 4.99994Z" fill="#006875"/>
<path d="M52.1638 11.0577C52.1638 9.71494 51.371 8.94704 50.3164 8.94704C49.2618 8.94704 48.4974 9.71494 48.4974 11.0577C48.4974 12.4006 49.2783 13.2041 50.3164 13.2041C51.3544 13.2041 52.1592 12.4146 52.1592 11.0577H52.1638ZM46.6879 11.0577C46.6879 8.87795 48.2331 7.37292 50.3115 7.37292C52.3899 7.37292 53.9636 8.87776 53.9636 11.0577C53.9636 13.2377 52.4184 14.7593 50.3115 14.7593C48.2045 14.7593 46.6879 13.2496 46.6879 11.0577Z" fill="#006875"/>
<path d="M58.9494 7.37289V9.26186H58.2114C57.3899 9.26186 56.8019 9.85103 56.8019 10.8932V14.5948H55.0353V7.53511H56.8019V8.55103C56.9455 8.19825 57.1922 7.89709 57.5095 7.68681C57.8268 7.47653 58.2001 7.36726 58.5805 7.37289H58.9494Z" fill="#006875"/>
<path d="M63.9299 8.94723H62.3633V12.0596C62.3633 12.7297 62.6371 13.0733 63.1847 13.0733H63.937V14.5948H62.9585C61.4538 14.5948 60.5921 13.6408 60.5921 12.1407V8.94723H59.3065V7.53533H60.5921V6.1807L62.3562 5.20758V7.53533H63.9299V8.94723Z" fill="#006875"/>
<path d="M69.5704 10.7025C69.5704 9.64605 68.8847 8.93522 67.9275 8.93522C66.9704 8.93522 66.261 9.65074 66.261 10.7025C66.261 11.7543 66.9467 12.4698 67.9275 12.4698C68.9084 12.4698 69.5704 11.7496 69.5704 10.7025ZM69.5416 7.53515H71.3058V13.6743C71.3058 15.8541 69.8439 17.1158 67.6964 17.1158C67.0318 17.1276 66.3773 16.9513 65.8082 16.607C65.2391 16.2626 64.7787 15.7645 64.4798 15.1697L65.7941 14.292C66.2036 15.0456 66.9011 15.5655 67.7368 15.5655C68.7225 15.5655 69.5415 14.9763 69.5415 13.7721V12.942C69.327 13.2907 69.024 13.5759 68.6635 13.7687C68.3029 13.9615 67.8977 14.0548 67.4893 14.0393C65.7537 14.0393 64.468 12.6082 64.468 10.7003C64.468 8.79234 65.7536 7.36129 67.4893 7.36129C67.8992 7.34533 68.3057 7.43977 68.6667 7.63485C69.0278 7.82992 69.3299 8.11831 69.5416 8.47016V7.53515Z" fill="#006875"/>
<path d="M77.0437 12.539C77.0437 11.9355 76.4557 11.585 75.5939 11.585C74.7321 11.585 74.144 11.9284 74.144 12.539C74.144 13.1495 74.7321 13.4691 75.5939 13.4691C76.4557 13.4691 77.0437 13.14 77.0437 12.539ZM78.7674 10.154V14.5949H77.1246V13.9081C76.7009 14.4709 75.9746 14.7595 75.0462 14.7595C73.4034 14.7595 72.3227 13.9368 72.3227 12.551C72.3227 11.2226 73.4464 10.3592 75.1797 10.3592C75.8462 10.3239 76.5011 10.5449 77.0105 10.9769V10.3329C77.0105 9.37892 76.4652 8.94728 75.5486 8.94728C75.1992 8.93338 74.8549 9.03627 74.5701 9.23961C74.2852 9.44294 74.0759 9.73527 73.9749 10.0706L72.5106 9.45534C72.9867 7.96233 74.2201 7.37335 75.6057 7.37335C77.3032 7.37335 78.7674 8.24846 78.7674 10.154Z" fill="#006875"/>
<path d="M84.872 10.7025C84.872 9.64601 84.1888 8.93518 83.2292 8.93518C82.2696 8.93518 81.5627 9.6507 81.5627 10.7025C81.5627 11.7543 82.2484 12.4698 83.2292 12.4698C84.21 12.4698 84.872 11.7496 84.872 10.7025ZM84.8435 7.5353H86.61V13.6744C86.61 15.8542 85.146 17.1159 82.9984 17.1159C82.3338 17.1274 81.6795 16.9509 81.1106 16.6067C80.5417 16.2624 80.0812 15.7645 79.7821 15.1699L81.0963 14.2921C81.5058 15.0458 82.2058 15.5656 83.039 15.5656C84.0247 15.5656 84.8437 14.9765 84.8437 13.7722V12.9422C84.6294 13.2905 84.3268 13.5755 83.9667 13.7681C83.6066 13.9609 83.2018 14.0544 82.7938 14.0392C81.0558 14.0392 79.7702 12.6082 79.7702 10.7002C79.7702 8.7923 81.0558 7.36125 82.7938 7.36125C83.2033 7.34548 83.6094 7.44011 83.9701 7.63518C84.3305 7.83026 84.6323 8.11864 84.8437 8.4703V7.53549L84.8435 7.5353Z" fill="#006875"/>
<path d="M89.505 10.2493H92.6357C92.4453 9.25007 91.8834 8.79684 91.1048 8.79684C90.2524 8.79684 89.7049 9.27617 89.505 10.2493ZM94.4239 11.4562H89.4575C89.5694 12.7011 90.224 13.2496 91.1239 13.2496C91.9572 13.2496 92.5524 12.8656 92.9286 11.9068L94.419 12.4554C93.8713 14.0462 92.6286 14.7593 91.1906 14.7593C89.1122 14.7593 87.6624 13.2783 87.6624 11.0577C87.6624 8.8372 89.0908 7.37292 91.1097 7.37292C93.0644 7.37292 94.4428 8.85166 94.4428 11.0433C94.4436 11.1811 94.4372 11.3189 94.4239 11.4562Z" fill="#006875"/>
<path d="M15.1283 13.5693C15.1283 13.5693 20.9095 5.50595 27.0205 5.50595C29.049 5.50595 30.4436 6.46949 30.5703 7.81342C30.7224 9.1827 29.9111 10.9068 27.1472 10.7294C25.2201 10.6027 18.5007 9.48686 14.2408 17.2714C14.2408 17.2714 13.9364 12.2003 11.2994 9.20805C9.90481 7.636 10.0569 6.16534 11.4515 5.30318C11.4515 5.30318 13.8097 4.11152 14.5449 7.71204C14.8746 9.33478 15.3566 11.8706 15.1283 13.5693Z" fill="#5AE2E0"/>
<path d="M13.5055 20.5423C13.5055 20.5423 17.3344 11.7183 27.8827 13.1383C29.6577 13.3664 30.824 14.5836 30.6465 16.3586C30.4691 18.3617 28.187 18.8182 26.2092 18.2857C19.5658 16.46 16.8021 17.2968 12.9479 23.002C11.7054 15.9782 7.26803 14.964 5.87341 12.8341C5.41698 12.1496 5.16352 10.8817 5.94945 10.1209C6.73557 9.36015 7.92723 9.23341 8.84008 9.91815C10.6404 11.3381 13.2014 17.2208 13.5057 20.5425L13.5055 20.5423Z" fill="#E21E2D"/>
<path d="M11.8068 28.9606C11.8068 28.9606 12.1111 21.8354 2.90674 18.9194C1.46142 18.463 0.57392 16.7387 1.20777 15.547C1.81628 14.406 3.4899 14.1777 5.0366 14.9638C10.5135 17.7277 12.3646 25.4868 12.3646 25.4868C16.9795 18.6659 24.1552 19.5535 27.2995 20.3647C30.5452 21.2015 31.0269 23.306 30.4945 24.726C29.9874 26.0953 28.187 26.9828 24.9922 25.3599C24.6879 25.2585 16.016 20.5675 11.8069 28.9604L11.8068 28.9606Z" fill="#006875"/>
<path d="M35.6924 23.8639C35.6924 20.9226 37.6955 18.9194 40.4848 18.9194C42.5386 18.9194 44.1615 20.0097 44.77 21.9621L43.0711 22.596C42.64 21.3788 41.7271 20.6182 40.5101 20.6182C38.862 20.6182 37.6702 21.8354 37.6702 23.8639C37.6702 25.8924 38.8619 27.1096 40.5101 27.1096C41.7527 27.1096 42.6653 26.3488 43.0711 25.1318L44.77 25.7656C44.1615 27.7181 42.564 28.8083 40.4848 28.8083C37.6702 28.8083 35.6924 26.8052 35.6924 23.8639Z" fill="#006875"/>
<path d="M51.819 24.1176V28.6563H50.044V24.4217C50.044 23.5089 49.5115 22.9764 48.8014 22.9764C47.9646 22.9764 47.3561 23.5342 47.3561 24.4978V28.6563H45.5811V19.0715H47.3561V22.52C47.7872 21.7592 48.4971 21.4297 49.2832 21.4297C50.7539 21.4297 51.8188 22.4946 51.8188 24.1176H51.819Z" fill="#006875"/>
<path d="M52.8332 25.1066C52.8332 22.9258 54.3799 21.4298 56.4592 21.4298C58.5386 21.4298 60.1106 22.9258 60.1106 25.1066C60.1106 27.2873 58.5639 28.8087 56.4592 28.8087C54.3545 28.8087 52.8332 27.3126 52.8332 25.1066ZM58.2849 25.1066C58.2849 23.7626 57.4988 23.002 56.4339 23.002C55.369 23.002 54.6082 23.7628 54.6082 25.1066C54.6082 26.4503 55.3943 27.2364 56.4339 27.2364C57.4735 27.2364 58.2849 26.4756 58.2849 25.1066Z" fill="#006875"/>
<path d="M60.922 19.7309C60.922 19.0717 61.4291 18.666 62.0629 18.666C62.6968 18.666 63.2039 19.0717 63.2039 19.7309C63.2039 20.3901 62.6968 20.7959 62.0629 20.7959C61.4291 20.7959 60.922 20.4155 60.922 19.7309ZM62.9251 21.6072V28.6563H61.1501V21.6072H62.9251Z" fill="#006875"/>
<path d="M64.0154 25.1066C64.0154 22.9005 65.5367 21.4298 67.5399 21.4298C69.0866 21.4298 70.4305 22.2159 70.9123 23.9401L69.3656 24.4979C69.0105 23.4076 68.4527 23.0019 67.5652 23.0019C66.6777 23.0019 65.8662 23.7117 65.8662 25.1317C65.8662 26.5517 66.6777 27.2616 67.5652 27.2616C68.4527 27.2616 69.0359 26.8558 69.3656 25.7656L70.9123 26.3234C70.4558 28.0477 69.1119 28.8336 67.5399 28.8336C65.5367 28.8083 64.0154 27.3123 64.0154 25.1062V25.1066Z" fill="#006875"/>
<path d="M78.2404 25.5123H73.2706C73.372 26.7549 74.0314 27.3127 74.944 27.3127C75.7808 27.3127 76.3893 26.9323 76.7444 25.9688L78.2404 26.5266C77.6826 28.124 76.44 28.834 75.0201 28.834C72.9409 28.834 71.4956 27.3634 71.4956 25.132C71.4956 22.9005 72.9155 21.4552 74.944 21.4552C76.9725 21.4552 78.2657 22.9259 78.2657 25.1066C78.2657 25.2333 78.2657 25.3856 78.2404 25.5123ZM73.3466 24.2951H76.4907C76.2879 23.3062 75.73 22.8498 74.9694 22.8498C74.0819 22.8498 73.5241 23.3316 73.3466 24.2951Z" fill="#006875"/>
<path d="M102.454 4.99994H101.83V28.6565H102.454V4.99994Z" fill="#726E75"/>
</svg>
