<svg xmlns:xlink="http://www.w3.org/1999/xlink"  xmlns="http://www.w3.org/2000/svg" width="176.196" height="50" viewBox="0 0 176.196 50">
  <g id="Mitre_10_Logo" data-name="Mitre 10 Logo" transform="translate(0 0)">
    <path id="Path_546" data-name="Path 546" d="M546.178,7.088c0,1.815-1.381,1.815-2.785,1.815h-.653V5.191h.653c1.5,0,2.785.019,2.785,1.9m4.025-.119c0-3.415-2.209-4.9-5.406-4.9h-5.923V16.956h3.867V12.023h2.2c3.371,0,5.265-1.542,5.265-5.054" transform="translate(-411.277 -1.582)" fill="#6dcff6"/>
    <path id="Path_547" data-name="Path 547" d="M593.291,2.071V16.956h3.872V11.112H601.4V7.836h-4.239V5.348h4.679V2.071Z" transform="translate(-452.811 -1.581)" fill="#6dcff6"/>
    <path id="Path_548" data-name="Path 548" d="M646.219,2.072V9.908c0,1.935-.139,4.047-2.626,4.047s-2.625-2.112-2.625-4.047V2.072H637.1v8.369c0,1.915.08,3.811,1.556,5.252a8.174,8.174,0,0,0,9.871,0c1.483-1.441,1.56-3.337,1.56-5.252V2.072Z" transform="translate(-486.244 -1.582)" fill="#6dcff6"/>
    <path id="Path_549" data-name="Path 549" d="M702.785,2.071V16.955h8.505V13.679h-4.639V2.071Z" transform="translate(-536.377 -1.581)" fill="#6dcff6"/>
    <path id="Path_550" data-name="Path 550" d="M27.866,87.9l-7.3,15.089-2.9-15.08H9.338L.515,116.157H8.262l4.868-17.31h.079l3.415,17.31h4.42l8.169-17.31h.076l-.015,17.31h7.283V87.885Z" transform="translate(-0.395 -67.075)" fill="#fff"/>
    <path id="Path_551" data-name="Path 551" d="M122.915,7.062V10.1h3.157a2.816,2.816,0,0,1-3.118,2.583c-2.541,0-3.928-2.347-3.928-4.653,0-2.271,1.323-4.7,3.867-4.7A3.364,3.364,0,0,1,126.112,5.7l3.666-1.539A6.91,6.91,0,0,0,123.074,0c-4.793,0-8.068,3.176-8.068,8.009a7.518,7.518,0,0,0,7.926,7.853,7.2,7.2,0,0,0,6.139-2.921c1.32-1.855,1.477-3.708,1.517-5.878Z" transform="translate(-87.775 0.001)" fill="#6dcff6"/>
    <path id="Path_552" data-name="Path 552" d="M196.354,2.091V7.829h-5.581V2.091h-3.868V16.963h3.868v-6.1h5.581v6.1h3.868V2.091Z" transform="translate(-142.65 -1.596)" fill="#6dcff6"/>
    <path id="Path_553" data-name="Path 553" d="M250.237,2.087V5.361h3.2v11.6H257.3V5.361h3.2V2.087Z" transform="translate(-190.986 -1.593)" fill="#6dcff6"/>
    <path id="Path_554" data-name="Path 554" d="M304.9,2.083l-2.782,4.044-2.781-4.044h-4.636l5.482,7.733v7.141h3.867V9.816l5.487-7.733Z" transform="translate(-224.926 -1.59)" fill="#6dcff6"/>
    <rect id="Rectangle_1064" data-name="Rectangle 1064" width="7.348" height="28.269" transform="translate(41.109 20.816)" fill="#fff"/>
    <path id="Path_555" data-name="Path 555" d="M219.923,87.906V94.13H226v22.044h7.348V94.13h6.072V87.906Z" transform="translate(-167.85 -67.091)" fill="#fff"/>
    <path id="Path_556" data-name="Path 556" d="M422.4,87.906v28.269H439v-6.221h-9.019v-4.875h8.555V98.854h-8.555V94.13H439V87.906Z" transform="translate(-322.385 -67.091)" fill="#fff"/>
    <path id="Path_557" data-name="Path 557" d="M555.406,87.862v6.263h2.881v22.005h7.226V87.862Z" transform="translate(-423.896 -67.058)" fill="#fff"/>
    <path id="Path_558" data-name="Path 558" d="M622.521,104.134a7.466,7.466,0,0,1,10.505-10.359l5.357-5.281a14.947,14.947,0,0,0-21.224,20.925Z" transform="translate(-468.338 -64.743)" fill="#fff"/>
    <path id="Path_559" data-name="Path 559" d="M655.721,106.335l-5.336,5.264a7.472,7.472,0,0,1-10.576,10.422l-5.336,5.26a14.941,14.941,0,0,0,21.247-20.947" transform="translate(-484.242 -81.157)" fill="#fff"/>
    <path id="Path_560" data-name="Path 560" d="M330.39,104.592c4.011-.712,6.187-4.087,6.187-7.984,0-6.039-4.236-8.7-9.822-8.7H315.768v28.268h7.352V105.3h.069l6.937,10.872h9.15Zm-6.56-4.011h-.709V93.533h.709c2.4,0,5.1.448,5.1,3.523s-2.7,3.525-5.1,3.525" transform="translate(-241 -67.094)" fill="#fff"/>
    <path id="Path_561" data-name="Path 561" d="M733.067,4.96h.154c.179,0,.33-.061.33-.208,0-.13-.1-.216-.3-.216a.755.755,0,0,0-.18.017Zm-.014.8h-.323V4.338a3.689,3.689,0,0,1,.542-.044.747.747,0,0,1,.483.112.354.354,0,0,1,.149.3.366.366,0,0,1-.294.338v.019c.141.042.206.155.25.346a1.211,1.211,0,0,0,.107.345h-.348a1.156,1.156,0,0,1-.112-.345c-.027-.147-.115-.218-.294-.218h-.16Zm-.872-.735a1.107,1.107,0,0,0,1.109,1.134,1.087,1.087,0,0,0,1.08-1.126,1.1,1.1,0,1,0-2.189-.008m2.552,0A1.458,1.458,0,1,1,733.29,3.6a1.429,1.429,0,0,1,1.443,1.42" transform="translate(-558.537 -2.749)" fill="#6dcff6"/>
    <rect id="Rectangle_3290" data-name="Rectangle 3290" width="3.867" height="14.874" transform="translate(21.668 0.494)" fill="#6dcff6"/>
    <path id="Path_5741" data-name="Path 5741" d="M14.406,2.046,10.558,10,9.027,2.051H4.647L0,16.933H4.081l2.56-9.119h.044l1.8,9.119h2.329l4.305-9.119h.035l-.005,9.119h3.836V2.04Z" transform="translate(0 -1.557)" fill="#6dcff6"/>
    <path id="Path_5742" data-name="Path 5742" d="M393.3,2.075V7.82h-5.586V2.075h-3.866V16.96h3.866v-6.1H393.3v6.1h3.871V2.075Z" transform="translate(-292.963 -1.583)" fill="#6dcff6"/>
    <path id="Path_5743" data-name="Path 5743" d="M451.309,2.071V16.956h8.47V13.678h-4.6V11.112h4.362V7.836h-4.362V5.348h4.6V2.071Z" transform="translate(-344.447 -1.581)" fill="#6dcff6"/>
    <path id="Path_5744" data-name="Path 5744" d="M497.728,2.071V16.955h8.511V13.679H501.6V2.071Z" transform="translate(-379.875 -1.581)" fill="#6dcff6"/>
  </g>
</svg>