<?xml version="1.0" encoding="UTF-8"?>
<svg version="1.1" xmlns="http://www.w3.org/2000/svg" width="500" height="35">
<path d="M0 0 C2.64 0 5.28 0 8 0 C9.32 3.96 10.64 7.92 12 12 C13.65 8.04 15.3 4.08 17 0 C19.31 0 21.62 0 24 0 C24 8.58 24 17.16 24 26 C22.02 26 20.04 26 18 26 C17.67 23.03 17.34 20.06 17 17 C16.01 19.97 15.02 22.94 14 26 C12.68 26 11.36 26 10 26 C9.01 23.36 8.02 20.72 7 18 C6.67 20.64 6.34 23.28 6 26 C4.02 26 2.04 26 0 26 C0 17.42 0 8.84 0 0 Z " fill="#FFFFFF" transform="translate(381,4)"/>
<path d="M0 0 C2.31 0 4.62 0 7 0 C8.65 3.3 10.3 6.6 12 10 C12.33 6.7 12.66 3.4 13 0 C14.98 0 16.96 0 19 0 C19 8.58 19 17.16 19 26 C16.69 26 14.38 26 12 26 C10.35 22.37 8.7 18.74 7 15 C6.67 18.63 6.34 22.26 6 26 C4.02 26 2.04 26 0 26 C0 17.42 0 8.84 0 0 Z " fill="#FFFFFF" transform="translate(437,4)"/>
<path d="M0 0 C2.31 0 4.62 0 7 0 C8.65 3.3 10.3 6.6 12 10 C12.33 6.7 12.66 3.4 13 0 C14.98 0 16.96 0 19 0 C19 8.58 19 17.16 19 26 C16.69 26 14.38 26 12 26 C10.35 22.37 8.7 18.74 7 15 C6.67 18.63 6.34 22.26 6 26 C4.02 26 2.04 26 0 26 C0 17.42 0 8.84 0 0 Z " fill="#FFFFFF" transform="translate(86,4)"/>
<path d="M0 0 C3.6196875 -0.0928125 3.6196875 -0.0928125 7.3125 -0.1875 C8.44619019 -0.22846802 8.44619019 -0.22846802 9.6027832 -0.27026367 C12.51196716 -0.30649698 14.51626905 -0.32697519 16.96484375 1.328125 C18.55971348 3.90399008 18.24197297 6.03583115 18 9 C17.690625 9.99 17.690625 9.99 17.375 11 C16.78209173 13.19857001 16.78209173 13.19857001 18.125 15.9375 C19 19 19 19 17.8125 21.75 C16 24 16 24 13 26 C8.71 26 4.42 26 0 26 C0 17.42 0 8.84 0 0 Z M6 5 C6 6.65 6 8.3 6 10 C7.65 9.67 9.3 9.34 11 9 C11 7.68 11 6.36 11 5 C9.35 5 7.7 5 6 5 Z M7 15 C6.67 16.65 6.34 18.3 6 20 C7.65 20 9.3 20 11 20 C11.33 18.68 11.66 17.36 12 16 C10.35 15.67 8.7 15.34 7 15 Z " fill="#FFFFFF" transform="translate(149,4)"/>
<path d="M0 0 C2.413125 -0.0825 4.82625 -0.165 7.3125 -0.25 C8.06829346 -0.28641602 8.82408691 -0.32283203 9.6027832 -0.36035156 C12.84304552 -0.41416066 14.54296462 -0.42693125 16.95703125 1.828125 C18.37028755 4.77108568 18.40353984 6.77168127 18 10 C16.5 12.375 16.5 12.375 15 14 C15.28875 14.61488281 15.5775 15.22976562 15.875 15.86328125 C16.24625 16.67152344 16.6175 17.47976562 17 18.3125 C17.37125 19.11300781 17.7425 19.91351562 18.125 20.73828125 C19 23 19 23 19 26 C16.69 26 14.38 26 12 26 C11.49384702 24.73160474 10.99530901 23.46016898 10.5 22.1875 C10.2215625 21.47980469 9.943125 20.77210937 9.65625 20.04296875 C9 18 9 18 9 15 C8.01 15 7.02 15 6 15 C6 18.63 6 22.26 6 26 C4.02 26 2.04 26 0 26 C0 17.42 0 8.84 0 0 Z M6 5 C6 6.65 6 8.3 6 10 C7.65 9.67 9.3 9.34 11 9 C11 7.68 11 6.36 11 5 C9.35 5 7.7 5 6 5 Z " fill="#FFFFFF" transform="translate(196,4)"/>
<path d="M0 0 C2.413125 -0.0825 4.82625 -0.165 7.3125 -0.25 C8.06829346 -0.28641602 8.82408691 -0.32283203 9.6027832 -0.36035156 C12.82754235 -0.41390321 14.55221658 -0.40300508 16.9921875 1.79296875 C18.50873968 5.11410046 17.82343767 7.51622525 17 11 C16.01 12.485 16.01 12.485 15 14 C15.63981387 16.49632264 15.63981387 16.49632264 16.875 19.0625 C19 23.85430464 19 23.85430464 19 26 C16.69 26 14.38 26 12 26 C9 19.5 9 19.5 9 15 C8.01 15 7.02 15 6 15 C6 18.63 6 22.26 6 26 C4.02 26 2.04 26 0 26 C0 17.42 0 8.84 0 0 Z M6 5 C6 6.65 6 8.3 6 10 C8.47266765 9.65555119 8.47266765 9.65555119 11 9 C11.33 8.34 11.66 7.68 12 7 C11.67 6.34 11.34 5.68 11 5 C9.35 5 7.7 5 6 5 Z " fill="#FFFFFF" transform="translate(221,4)"/>
<path d="M0 0 C13.27424749 -0.61454849 13.27424749 -0.61454849 16.421875 2.05078125 C18.39882637 5.74533146 18.53342315 8.32210625 18.5 12.5 C18.5103125 13.7890625 18.520625 15.078125 18.53125 16.40625 C17.9289652 20.48052952 16.88015591 22.11984409 14 25 C9.81537205 27.09231398 4.67855628 26 0 26 C0 17.42 0 8.84 0 0 Z M6 5 C6 9.95 6 14.9 6 20 C7.65 20 9.3 20 11 20 C12.30459914 17.39080172 12.1326594 15.41057385 12.125 12.5 C12.12757812 11.5203125 12.13015625 10.540625 12.1328125 9.53125 C12.16940053 7.00568946 12.16940053 7.00568946 11 5 C9.35 5 7.7 5 6 5 Z " fill="#FFFFFF" transform="translate(113,4)"/>
<path d="M0 0 C1.299375 0.02900391 1.299375 0.02900391 2.625 0.05859375 C3.49125 0.05988281 4.3575 0.06117187 5.25 0.0625 C8.0566121 0.57489135 8.94917097 1.21909431 10.625 3.49609375 C11.3125 6.68359375 11.3125 6.68359375 11.625 9.49609375 C9.645 9.49609375 7.665 9.49609375 5.625 9.49609375 C5.295 8.17609375 4.965 6.85609375 4.625 5.49609375 C3.635 6.15609375 2.645 6.81609375 1.625 7.49609375 C2.17929687 7.83382813 2.73359375 8.1715625 3.3046875 8.51953125 C4.02914063 8.96554687 4.75359375 9.4115625 5.5 9.87109375 C6.21929687 10.31195313 6.93859375 10.7528125 7.6796875 11.20703125 C9.625 12.49609375 9.625 12.49609375 11.625 14.49609375 C11.96456435 17.50366374 12.17553953 19.59429165 11.625 22.49609375 C8.93463932 25.757137 7.30080027 26.39955085 3.125 26.99609375 C-0.99967765 26.40685409 -2.60545978 25.59146223 -5.375 22.49609375 C-6.1875 19.24609375 -6.1875 19.24609375 -6.375 16.49609375 C-4.065 16.49609375 -1.755 16.49609375 0.625 16.49609375 C0.955 17.48609375 1.285 18.47609375 1.625 19.49609375 C3.64008358 20.22933171 3.64008358 20.22933171 5.625 20.49609375 C4.39384358 16.80262449 3.49619351 16.63519301 0.125 14.93359375 C-4.27319724 12.69969926 -4.27319724 12.69969926 -5.375 10.49609375 C-5.65577085 7.26722895 -5.76230735 5.19400148 -4.171875 2.328125 C-2.375 0.49609375 -2.375 0.49609375 0 0 Z " fill="#FFFFFF" transform="translate(362.375,3.50390625)"/>
<path d="M0 0 C0.86625 -0.00773438 1.7325 -0.01546875 2.625 -0.0234375 C5.44918145 0.4503561 6.32119236 1.08862388 8 3.375 C8.6875 6.5625 8.6875 6.5625 9 9.375 C7.35 9.705 5.7 10.035 4 10.375 C4.825 10.890625 5.65 11.40625 6.5 11.9375 C9 14.375 9 14.375 9.625 17.8125 C8.83515672 22.3146067 7.72536415 23.75931879 4 26.375 C-0.16245773 27.04396642 -2.20040562 26.82694465 -5.875 24.75 C-8.39626084 21.93212024 -8.74624791 20.09669726 -9 16.375 C-6.69 16.375 -4.38 16.375 -2 16.375 C-2 17.695 -2 19.015 -2 20.375 C-0.68 20.045 0.64 19.715 2 19.375 C2 18.715 2 18.055 2 17.375 C1.44570313 17.10945313 0.89140625 16.84390625 0.3203125 16.5703125 C-0.40414063 16.21710937 -1.12859375 15.86390625 -1.875 15.5 C-2.59429688 15.15195312 -3.31359375 14.80390625 -4.0546875 14.4453125 C-6 13.375 -6 13.375 -8 11.375 C-8.57005811 4.19226778 -8.57005811 4.19226778 -6.79296875 1.64453125 C-4.42656577 -0.03102642 -2.8797147 -0.02571174 0 0 Z M-2 5.375 C-2 6.365 -2 7.355 -2 8.375 C-0.68 8.705 0.64 9.035 2 9.375 C2 8.055 2 6.735 2 5.375 C0.68 5.375 -0.64 5.375 -2 5.375 Z " fill="#FFFFFF" transform="translate(25,3.625)"/>
<path d="M0 0 C0.86625 -0.00773438 1.7325 -0.01546875 2.625 -0.0234375 C5.44918145 0.4503561 6.32119236 1.08862388 8 3.375 C8.6875 6.5625 8.6875 6.5625 9 9.375 C7.35 9.705 5.7 10.035 4 10.375 C4.825 10.890625 5.65 11.40625 6.5 11.9375 C9 14.375 9 14.375 9.625 17.8125 C8.83515672 22.3146067 7.72536415 23.75931879 4 26.375 C-0.16245773 27.04396642 -2.20040562 26.82694465 -5.875 24.75 C-8.39626084 21.93212024 -8.74624791 20.09669726 -9 16.375 C-6.69 16.375 -4.38 16.375 -2 16.375 C-2 17.695 -2 19.015 -2 20.375 C-0.68 20.045 0.64 19.715 2 19.375 C2 18.715 2 18.055 2 17.375 C1.44570313 17.10945313 0.89140625 16.84390625 0.3203125 16.5703125 C-0.40414063 16.21710937 -1.12859375 15.86390625 -1.875 15.5 C-2.59429687 15.15195312 -3.31359375 14.80390625 -4.0546875 14.4453125 C-6 13.375 -6 13.375 -8 11.375 C-8.57005811 4.19226778 -8.57005811 4.19226778 -6.79296875 1.64453125 C-4.42656577 -0.03102642 -2.8797147 -0.02571174 0 0 Z M-2 5.375 C-1.67 6.695 -1.34 8.015 -1 9.375 C-0.01 9.375 0.98 9.375 2 9.375 C2 8.055 2 6.735 2 5.375 C0.68 5.375 -0.64 5.375 -2 5.375 Z " fill="#FFFFFF" transform="translate(289,3.625)"/>
<path d="M0 0 C1.134375 0.020625 2.26875 0.04125 3.4375 0.0625 C9.74342105 18.07941729 9.74342105 18.07941729 9.4375 26.0625 C7.4575 26.0625 5.4775 26.0625 3.4375 26.0625 C3.1075 24.7425 2.7775 23.4225 2.4375 22.0625 C0.4575 22.0625 -1.5225 22.0625 -3.5625 22.0625 C-3.8925 23.3825 -4.2225 24.7025 -4.5625 26.0625 C-6.5425 26.0625 -8.5225 26.0625 -10.5625 26.0625 C-9.47297534 19.96976341 -8.08089338 13.9812372 -6.5 8 C-6.3256543 7.33282959 -6.15130859 6.66565918 -5.97167969 5.97827148 C-4.38782937 0.07697946 -4.38782937 0.07697946 0 0 Z M-0.5625 9.0625 C-0.8925 11.3725 -1.2225 13.6825 -1.5625 16.0625 C-0.5725 15.7325 0.4175 15.4025 1.4375 15.0625 C1.1075 13.0825 0.7775 11.1025 0.4375 9.0625 C0.1075 9.0625 -0.2225 9.0625 -0.5625 9.0625 Z " fill="#FFFFFF" transform="translate(421.5625,3.9375)"/>
<path d="M0 0 C1.134375 0.020625 2.26875 0.04125 3.4375 0.0625 C9.74342105 18.07941729 9.74342105 18.07941729 9.4375 26.0625 C7.4575 26.0625 5.4775 26.0625 3.4375 26.0625 C3.1075 24.7425 2.7775 23.4225 2.4375 22.0625 C0.4575 22.0625 -1.5225 22.0625 -3.5625 22.0625 C-3.8925 23.3825 -4.2225 24.7025 -4.5625 26.0625 C-6.5425 26.0625 -8.5225 26.0625 -10.5625 26.0625 C-9.47297534 19.96976341 -8.08089338 13.9812372 -6.5 8 C-6.3256543 7.33282959 -6.15130859 6.66565918 -5.97167969 5.97827148 C-4.38782937 0.07697946 -4.38782937 0.07697946 0 0 Z M-0.5625 9.0625 C-0.8925 11.3725 -1.2225 13.6825 -1.5625 16.0625 C-0.5725 16.0625 0.4175 16.0625 1.4375 16.0625 C1.1075 13.7525 0.7775 11.4425 0.4375 9.0625 C0.1075 9.0625 -0.2225 9.0625 -0.5625 9.0625 Z " fill="#FFFFFF" transform="translate(70.5625,3.9375)"/>
<path d="M0 0 C1.134375 0.020625 2.26875 0.04125 3.4375 0.0625 C8.99330866 17.91899203 8.99330866 17.91899203 9.4375 26.0625 C7.4575 26.0625 5.4775 26.0625 3.4375 26.0625 C3.1075 24.7425 2.7775 23.4225 2.4375 22.0625 C0.4575 22.0625 -1.5225 22.0625 -3.5625 22.0625 C-3.8925 23.3825 -4.2225 24.7025 -4.5625 26.0625 C-6.5425 26.0625 -8.5225 26.0625 -10.5625 26.0625 C-6.53794338 0.11470076 -6.53794338 0.11470076 0 0 Z M-0.5625 10.0625 C-0.8925 12.0425 -1.2225 14.0225 -1.5625 16.0625 C-0.5725 15.7325 0.4175 15.4025 1.4375 15.0625 C1.1075 13.4125 0.7775 11.7625 0.4375 10.0625 C0.1075 10.0625 -0.2225 10.0625 -0.5625 10.0625 Z " fill="#FFFFFF" transform="translate(342.5625,3.9375)"/>
<path d="M0 0 C2.64 0 5.28 0 8 0 C8.84793248 3.01692571 9.67562781 6.03905931 10.5 9.0625 C10.73847656 9.91005859 10.97695313 10.75761719 11.22265625 11.63085938 C12.56184901 16.5858726 13.27852904 20.86810247 13 26 C11.02 26 9.04 26 7 26 C7 24.68 7 23.36 7 22 C5.02 22.33 3.04 22.66 1 23 C0.67 23.99 0.34 24.98 0 26 C-1.98 26 -3.96 26 -6 26 C-5.39502042 19.93629658 -4.1366972 14.34485758 -2.4375 8.5 C-2.20353516 7.67757813 -1.96957031 6.85515625 -1.72851562 6.0078125 C-1.15757928 4.00370942 -0.57953295 2.00163409 0 0 Z M3 10 C2.67 11.98 2.34 13.96 2 16 C2.99 16 3.98 16 5 16 C4.67 14.02 4.34 12.04 4 10 C3.67 10 3.34 10 3 10 Z " fill="#FFFFFF" transform="translate(482,4)"/>
<path d="M0 0 C5.28 0 10.56 0 16 0 C16 1.65 16 3.3 16 5 C11.545 5.495 11.545 5.495 7 6 C7 6.66 7 7.32 7 8 C9.97 8.495 9.97 8.495 13 9 C13 10.98 13 12.96 13 15 C11.02 15.33 9.04 15.66 7 16 C7 16.99 7 17.98 7 19 C9.97 19.33 12.94 19.66 16 20 C16 21.98 16 23.96 16 26 C10.72 26 5.44 26 0 26 C0 17.42 0 8.84 0 0 Z " fill="#FFFFFF" transform="translate(174,4)"/>
<path d="M0 0 C4.95 0 9.9 0 15 0 C15 1.65 15 3.3 15 5 C12.03 5 9.06 5 6 5 C6 6.32 6 7.64 6 9 C7.98 9 9.96 9 12 9 C12 10.98 12 12.96 12 15 C10.02 15 8.04 15 6 15 C6 16.65 6 18.3 6 20 C8.97 20 11.94 20 15 20 C15 21.98 15 23.96 15 26 C10.05 26 5.1 26 0 26 C0 17.42 0 8.84 0 0 Z " fill="#FFFFFF" transform="translate(260,4)"/>
<path d="M0 0 C5.61 0 11.22 0 17 0 C17 1.65 17 3.3 17 5 C15.02 5 13.04 5 11 5 C11 11.93 11 18.86 11 26 C9.02 26 7.04 26 5 26 C5 19.07 5 12.14 5 5 C3.35 5 1.7 5 0 5 C0 3.35 0 1.7 0 0 Z " fill="#FFFFFF" transform="translate(313,4)"/>
<path d="M0 0 C1.98 0 3.96 0 6 0 C6 6.6 6 13.2 6 20 C8.97 20 11.94 20 15 20 C15 21.98 15 23.96 15 26 C10.05 26 5.1 26 0 26 C0 17.42 0 8.84 0 0 Z " fill="#FFFFFF" transform="translate(41,4)"/>
<path d="M0 0 C1.98 0 3.96 0 6 0 C6 8.58 6 17.16 6 26 C4.02 26 2.04 26 0 26 C0 17.42 0 8.84 0 0 Z " fill="#FFFFFF" transform="translate(464,4)"/>
<path d="M0 0 C1.98 0 3.96 0 6 0 C6 8.58 6 17.16 6 26 C4.02 26 2.04 26 0 26 C0 17.42 0 8.84 0 0 Z " fill="#FFFFFF" transform="translate(246,4)"/>
<path d="M0 0 C1.98 0 3.96 0 6 0 C6 8.58 6 17.16 6 26 C4.02 26 2.04 26 0 26 C0 17.42 0 8.84 0 0 Z " fill="#FFFFFF" transform="translate(4,4)"/>
</svg>
