<?xml version="1.0" encoding="UTF-8"?>
<svg version="1.1" xmlns="http://www.w3.org/2000/svg" width="116" height="200">
<path d="M0 0 C38.28 0 76.56 0 116 0 C116 66 116 132 116 200 C77.72 200 39.44 200 0 200 C0 134 0 68 0 0 Z M5 5 C5 67.7 5 130.4 5 195 C39.98 195 74.96 195 111 195 C111 132.3 111 69.6 111 5 C76.02 5 41.04 5 5 5 Z " fill="#FFFFFF" transform="translate(0,0)"/>
<path d="M0 0 C2.64 0 5.28 0 8 0 C9.32 6.93 10.64 13.86 12 21 C12.94680975 14.46366588 12.94680975 14.46366588 13.88452148 7.92602539 C14.00384033 7.11641357 14.12315918 6.30680176 14.24609375 5.47265625 C14.36654053 4.64000244 14.4869873 3.80734863 14.61108398 2.94946289 C15 1 15 1 16 0 C17.99958364 -0.04080783 20.00045254 -0.04254356 22 0 C23.5402775 4.97677898 24.50636739 9.77039648 25.125 14.9375 C25.21136719 15.62134766 25.29773438 16.30519531 25.38671875 17.00976562 C25.59602285 18.67257046 25.79871722 20.33620513 26 22 C26.08564209 21.44014404 26.17128418 20.88028809 26.25952148 20.3034668 C26.64948061 17.76438792 27.04344516 15.22594632 27.4375 12.6875 C27.57220703 11.80642578 27.70691406 10.92535156 27.84570312 10.01757812 C27.97783203 9.17001953 28.10996094 8.32246094 28.24609375 7.44921875 C28.36654053 6.66893311 28.4869873 5.88864746 28.61108398 5.0847168 C29 3 29 3 30 0 C32.64 0 35.28 0 38 0 C36.74984548 10.12153233 35.1828649 20.14616785 33.34057617 30.17578125 C32.92908958 32.42088798 32.5258318 34.66738002 32.12304688 36.9140625 C31.86246088 38.34644189 31.60141179 39.77873712 31.33984375 41.2109375 C31.10644287 42.49274902 30.87304199 43.77456055 30.63256836 45.09521484 C30 48 30 48 29 49 C27.02 49 25.04 49 23 49 C21.68 42.07 20.36 35.14 19 28 C17.68 34.93 16.36 41.86 15 49 C13.02 49 11.04 49 9 49 C7.11150892 43.90407169 6.15995895 38.85226032 5.2734375 33.515625 C5.12089508 32.61882019 4.96835266 31.72201538 4.81118774 30.79803467 C4.49136412 28.9124451 4.17380851 27.02646958 3.85839844 25.14013672 C3.37414689 22.24489943 2.88298952 19.3508988 2.390625 16.45703125 C2.0803281 14.62246362 1.7704186 12.78783042 1.4609375 10.953125 C1.31409515 10.08544495 1.16725281 9.21776489 1.01596069 8.3237915 C0 2.23414989 0 2.23414989 0 0 Z " fill="#FFFFFF" transform="translate(18,76)"/>
<path d="M0 0 C2.64 0 5.28 0 8 0 C8.33 4.29 8.66 8.58 9 13 C10.65 8.71 12.3 4.42 14 0 C16.64 0 19.28 0 22 0 C20.42489753 5.45141849 18.83034569 10.75567088 16.453125 15.91796875 C14.98645327 22.65707246 18.44574853 30.65022616 20.27148438 37.1484375 C21.37329018 41.18303834 22.33647589 44.77248247 22 49 C19.69 49 17.38 49 15 49 C13.35 43.39 11.7 37.78 10 32 C8.06411593 35.87176814 8.52390435 40.64203958 8.28125 44.91015625 C8 48 8 48 7 49 C4.69 49 2.38 49 0 49 C0 32.83 0 16.66 0 0 Z " fill="#FFFFFF" transform="translate(77,76)"/>
<path d="M0 0 C3.8032491 2.94945848 3.8032491 2.94945848 5 6 C5.38711927 9.70819516 5.29722916 13.28793801 5 17 C2.66705225 17.04241723 0.33297433 17.04092937 -2 17 C-4.04698414 14.95301586 -3.70045693 10.69588759 -4 8 C-5.65 7.67 -7.3 7.34 -9 7 C-9 18.22 -9 29.44 -9 41 C-6.525 40.505 -6.525 40.505 -4 40 C-3.67 37.69 -3.34 35.38 -3 33 C-0.69 32.34 1.62 31.68 4 31 C5.63930993 32.63930993 5.21001367 34.49743674 5.25 36.75 C5.20157285 40.98737569 4.88395241 43.70405439 2 47 C-1.03331581 49.35924563 -4.26038919 49.35310045 -8.03515625 49.26171875 C-11.90727875 48.74594895 -14.32018848 46.67981152 -17 44 C-19.01577843 38.50846537 -18.18593974 32.08436532 -18.18530273 26.30102539 C-18.18748917 24.07353608 -18.20566428 21.84654242 -18.22460938 19.61914062 C-18.22754378 18.19531418 -18.22952826 16.7714854 -18.23046875 15.34765625 C-18.23457764 14.05867432 -18.23868652 12.76969238 -18.24291992 11.44165039 C-17.93874201 7.13210661 -17.31141142 4.18450064 -14.0625 1.25 C-9.39523698 -1.57864426 -5.13431413 -1.41171159 0 0 Z " fill="#FFFFFF" transform="translate(36,135)"/>
<path d="M0 0 C2.31 0 4.62 0 7 0 C8.38977785 3.95557807 9.44968875 7.80962147 10.21875 11.9296875 C10.42798096 13.04819092 10.63721191 14.16669434 10.8527832 15.3190918 C11.06636475 16.4925415 11.27994629 17.66599121 11.5 18.875 C11.72067139 20.07487549 11.94134277 21.27475098 12.16870117 22.51098633 C13.76033347 31.31446164 15.08685242 40.10021839 16 49 C13.66705225 49.04241723 11.33297433 49.04092937 9 49 C8 48 8 48 7.9375 45.4375 C7.958125 44.633125 7.97875 43.82875 8 43 C5.36 43 2.72 43 0 43 C-0.33 44.98 -0.66 46.96 -1 49 C-3.31 49 -5.62 49 -8 49 C-7.37699689 41.23703836 -6.19792172 33.598505 -4.89819336 25.92260742 C-4.56258992 23.93803174 -4.23308676 21.95251149 -3.90429688 19.96679688 C-2.77939578 13.26130538 -1.55857906 6.61852412 0 0 Z M3 21 C2.34 25.95 1.68 30.9 1 36 C2.65 36 4.3 36 6 36 C5.88529863 34.24929483 5.75780972 32.49942464 5.625 30.75 C5.52058594 29.28820312 5.52058594 29.28820312 5.4140625 27.796875 C5.1015826 24.68415798 5.1015826 24.68415798 3 21 Z " fill="#FFFFFF" transform="translate(44,17)"/>
<path d="M0 0 C2.70567626 1.82339052 4.53728718 3.07457436 6 6 C6.06950541 7.54023996 6.08452357 9.08334988 6.0625 10.625 C6.05347656 11.44226562 6.04445313 12.25953125 6.03515625 13.1015625 C6.02355469 13.72804688 6.01195313 14.35453125 6 15 C3.69 15 1.38 15 -1 15 C-1.66 12.69 -2.32 10.38 -3 8 C-4.65 8.33 -6.3 8.66 -8 9 C-8.55604969 12.17742679 -8.52673799 14.2442455 -6.65234375 16.93359375 C-4.81510831 19.00502624 -2.92091897 21.00608611 -1 23 C0.13486889 24.28300443 1.26070473 25.57408731 2.375 26.875 C2.85710937 27.42929687 3.33921875 27.98359375 3.8359375 28.5546875 C6.72419357 32.14077725 6.38264796 35.85365094 6.359375 40.29296875 C6 43 6 43 3.625 46.125 C-0.8826788 49.34477057 -4.52773834 49.83552988 -10 49 C-13.57623788 47.0862694 -15.69762236 44.90713292 -17 41 C-17.03954234 38.66700175 -17.04401732 36.33291811 -17 34 C-14.36 34 -11.72 34 -9 34 C-8.34 36.31 -7.68 38.62 -7 41 C-5.68 41 -4.36 41 -3 41 C-2.3530015 35.3087464 -2.3530015 35.3087464 -5 30.5625 C-5.99 29.716875 -6.98 28.87125 -8 28 C-9.43799703 26.47820991 -10.85340165 24.93486974 -12.25 23.375 C-13.27867188 22.24191406 -13.27867188 22.24191406 -14.328125 21.0859375 C-17.70527242 16.87239376 -17.4811069 12.15601354 -17 7 C-15.56676684 3.12183967 -14.3542111 2.20435256 -10.75 0.125 C-6.52668074 -1.14199578 -4.23192049 -1.17553347 0 0 Z " fill="#FFFFFF" transform="translate(76,17)"/>
<path d="M0 0 C3.40563431 2.17380913 4.71751983 3.15255949 6 7 C6.14854388 9.80519407 6.23104204 12.56922127 6.25 15.375 C6.270625 16.13039062 6.29125 16.88578125 6.3125 17.6640625 C6.34468266 22.2661833 6.01568962 25.28623408 3 29 C-0.76493128 31.17207574 -3.2710126 32 -7.625 32 C-11.65346636 30.80638034 -13.34289636 29.20415439 -16 26 C-17.68306823 22.63386353 -17.26885525 18.88566492 -17.3125 15.1875 C-17.34150391 14.37990234 -17.37050781 13.57230469 -17.40039062 12.74023438 C-17.44390451 8.65327668 -17.34615475 6.55053718 -15.12109375 3.01171875 C-10.50353805 -1.36773095 -5.94758382 -1.68214492 0 0 Z M-9 8 C-9.12557162 10.30993382 -9.17575729 12.62418536 -9.1875 14.9375 C-9.20167969 16.20464844 -9.21585938 17.47179687 -9.23046875 18.77734375 C-9.34713697 22.08943999 -9.34713697 22.08943999 -7 24 C-4.21762345 23.59471099 -4.21762345 23.59471099 -2 22 C-1.9008243 19.85605481 -1.8702985 17.70873268 -1.875 15.5625 C-1.87113281 13.80099609 -1.87113281 13.80099609 -1.8671875 12.00390625 C-1.79234454 9.0759191 -1.79234454 9.0759191 -3 7 C-6.28930404 6.63314303 -6.28930404 6.63314303 -9 8 Z " fill="#FFFFFF" transform="translate(61,135)"/>
<path d="M0 0 C0.83265381 0.00523682 1.66530762 0.01047363 2.52319336 0.01586914 C3.42231445 0.0190918 4.32143555 0.02231445 5.24780273 0.02563477 C6.66609375 0.03820312 6.66609375 0.03820312 8.11303711 0.05102539 C9.06243164 0.05553711 10.01182617 0.06004883 10.98999023 0.06469727 C13.34356776 0.07652429 15.69702188 0.09300514 18.05053711 0.11352539 C18.05053711 2.42352539 18.05053711 4.73352539 18.05053711 7.11352539 C16.07053711 7.44352539 14.09053711 7.77352539 12.05053711 8.11352539 C11.72053711 21.64352539 11.39053711 35.17352539 11.05053711 49.11352539 C8.74053711 49.11352539 6.43053711 49.11352539 4.05053711 49.11352539 C1.91967269 46.98266097 2.79092838 42.22185604 2.73413086 39.26586914 C2.71334976 38.37944229 2.69256866 37.49301544 2.67115784 36.57972717 C2.60556311 33.73690839 2.54673159 30.89399422 2.48803711 28.05102539 C2.44486131 26.12848933 2.40124733 24.20596305 2.35717773 22.28344727 C2.24987168 17.56023871 2.1486326 12.83693386 2.05053711 8.11352539 C0.40053711 7.78352539 -1.24946289 7.45352539 -2.94946289 7.11352539 C-2.99200645 5.11397793 -2.99027072 3.11310903 -2.94946289 1.11352539 C-1.94946289 0.11352539 -1.94946289 0.11352539 0 0 Z " fill="#FFFFFF" transform="translate(20.949462890625,16.886474609375)"/>
<path d="M0 0 C2.64 0 5.28 0 8 0 C8 13.86 8 27.72 8 42 C11.3 42 14.6 42 18 42 C18.04254356 43.99954746 18.04080783 46.00041636 18 48 C17.67 48.33 17.34 48.66 17 49 C11.39 49 5.78 49 0 49 C0 32.83 0 16.66 0 0 Z " fill="#FFFFFF" transform="translate(57,76)"/>
<path d="M0 0 C0.87785156 0.00515625 1.75570312 0.0103125 2.66015625 0.015625 C3.53542969 0.01046875 4.41070312 0.0053125 5.3125 0 C7.72265625 0.265625 7.72265625 0.265625 10.72265625 2.265625 C9.84765625 7.140625 9.84765625 7.140625 8.72265625 8.265625 C6.72466053 8.36436316 4.72308467 8.39534299 2.72265625 8.390625 C1.62953125 8.39320313 0.53640625 8.39578125 -0.58984375 8.3984375 C-3.27734375 8.265625 -3.27734375 8.265625 -4.27734375 7.265625 C-4.46484375 4.828125 -4.46484375 4.828125 -4.27734375 2.265625 C-2.27734375 0.265625 -2.27734375 0.265625 0 0 Z " fill="#FFFFFF" transform="translate(52.27734375,167.734375)"/>
</svg>
