<?xml version="1.0" encoding="UTF-8"?>
<svg id="Layer_1" xmlns="http://www.w3.org/2000/svg" version="1.1" viewBox="0 0 1080 1080">
  <!-- Generator: Adobe Illustrator 29.3.1, SVG Export Plug-In . SVG Version: 2.1.0 Build 151)  -->
  <defs>
    <style>
      .st0 {
        fill: #fff;
      }

      .st1 {
        fill: #010101;
      }
    </style>
  </defs>
  <rect class="st1" width="1080" height="1080" rx="2" ry="2"/>
  <g>
    <g>
      <path class="st0" d="M689.93,350.42l-181.58,181.58c-2.63,2.63-6.9,2.64-9.53.01l-52.74-52.49-.04.04-218.52-218.26c-4.25-4.25-11.52-1.24-11.52,4.78v671.95c0,3.73-3.02,6.75-6.75,6.75h-67.5c-3.73,0-6.75-3.02-6.75-6.75V141.51c0-3.73,3.02-6.75,6.75-6.75h73.71l.54.54,282.51,282.24c2.64,2.63,6.91,2.63,9.54,0l174.5-174.5c4.3-4.3,11.66-1.16,11.52,4.92l-2.17,97.83c-.04,1.74-.75,3.39-1.98,4.62Z"/>
      <path class="st0" d="M816.48,95.61v599.23c0,5.92-7.08,8.97-11.39,4.91l-67.5-63.77c-1.35-1.28-2.11-3.05-2.11-4.91V146.91h-.54l-126.36,126.63.54.54-81.23,81.23c-2.64,2.64-6.91,2.64-9.55,0L259.46,96.44c-4.25-4.25-1.25-11.51,4.76-11.52l110.79-.17c1.79,0,3.51.71,4.78,1.97l145.96,145.61c2.64,2.64,6.93,2.63,9.56-.02l142.45-143.49h0l131.98.05c3.73,0,6.75,3.02,6.75,6.75Z"/>
    </g>
    <g>
      <path class="st0" d="M390.07,729.58l181.58-181.58c2.63-2.63,6.9-2.64,9.53-.01l52.74,52.49.04-.04,218.52,218.26c4.25,4.25,11.52,1.24,11.52-4.78V141.99c0-3.73,3.02-6.75,6.75-6.75h67.5c3.73,0,6.75,3.02,6.75,6.75v796.5c0,3.73-3.02,6.75-6.75,6.75h-73.71s-.54-.54-.54-.54l-282.51-282.24c-2.64-2.63-6.91-2.63-9.54,0l-174.5,174.5c-4.3,4.3-11.66,1.16-11.52-4.92l2.17-97.83c.04-1.74.75-3.39,1.98-4.62Z"/>
      <path class="st0" d="M263.52,984.39V385.15c0-5.92,7.08-8.97,11.39-4.91l67.5,63.77c1.35,1.28,2.11,3.05,2.11,4.91v484.16s.54,0,.54,0l126.36-126.63-.54-.54,81.23-81.23c2.64-2.64,6.91-2.64,9.55,0l258.88,258.88c4.25,4.25,1.25,11.51-4.76,11.52l-110.79.17c-1.79,0-3.51-.71-4.78-1.97l-145.96-145.61c-2.64-2.64-6.93-2.63-9.56.02l-142.45,143.49h0l-131.98-.05c-3.73,0-6.75-3.02-6.75-6.75Z"/>
    </g>
  </g>
</svg>